FiraCode-Light.ufo
<glyph name="quotedbl" format="2">
  <advance width="1200"/>
  <unicode hex="0022"/>
  <outline>
    <contour>
      <point x="378" y="967" type="line"/>
      <point x="503" y="967" type="line"/>
      <point x="532" y="1475" type="line"/>
      <point x="348" y="1475" type="line"/>
    </contour>
    <contour>
      <point x="698" y="967" type="line"/>
      <point x="822" y="967" type="line"/>
      <point x="852" y="1475" type="line"/>
      <point x="669" y="1475" type="line"/>
    </contour>
  </outline>
</glyph>
<glyph name="numbersign" format="2">
  <advance width="1200"/>
  <unicode hex="0023"/>
  <outline>
    <contour>
      <point x="898" y="918" type="line"/>
      <point x="1083" y="918" type="line"/>
      <point x="1083" y="1026" type="line"/>
      <point x="911" y="1026" type="line"/>
      <point x="961" y="1374" type="line"/>
      <point x="852" y="1374" type="line"/>
      <point x="806" y="1026" type="line"/>
      <point x="482" y="1026" type="line"/>
      <point x="532" y="1374" type="line"/>
      <point x="424" y="1374" type="line"/>
      <point x="377" y="1026" type="line"/>
      <point x="190" y="1026" type="line"/>
      <point x="190" y="918" type="line"/>
      <point x="363" y="918" type="line"/>
      <point x="300" y="461" type="line"/>
      <point x="116" y="461" type="line"/>
      <point x="116" y="354" type="line"/>
      <point x="286" y="354" type="line"/>
      <point x="238" y="0" type="line"/>
      <point x="347" y="0" type="line"/>
      <point x="393" y="354" type="line"/>
      <point x="714" y="354" type="line"/>
      <point x="667" y="0" type="line"/>
      <point x="776" y="0" type="line"/>
      <point x="820" y="354" type="line"/>
      <point x="1009" y="354" type="line"/>
      <point x="1009" y="461" type="line"/>
      <point x="836" y="461" type="line"/>
    </contour>
    <contour>
      <point x="408" y="461" type="line"/>
      <point x="469" y="918" type="line"/>
      <point x="792" y="918" type="line"/>
      <point x="729" y="461" type="line"/>
    </contour>
  </outline>
</glyph>
<glyph name="dollar" format="2">
  <advance width="1200"/>
  <unicode hex="0024"/>
  <outline>
    <contour>
      <point x="689" y="1692" type="line"/>
      <point x="562" y="1692" type="line"/>
      <point x="562" y="1391" type="line"/>
      <point x="317" y="1368"/>
      <point x="207" y="1208"/>
      <point x="207" y="1065" type="curve" smooth="yes"/>
      <point x="207" y="881"/>
      <point x="344" y="765"/>
      <point x="562" y="692" type="curve"/>
      <point x="562" y="98" type="line"/>
      <point x="427" y="109"/>
      <point x="320" y="174"/>
      <point x="239" y="261" type="curve"/>
      <point x="154" y="170" type="line"/>
      <point x="241" y="84"/>
      <point x="375" y="-6"/>
      <point x="562" y="-18" type="curve"/>
      <point x="562" y="-301" type="line"/>
      <point x="689" y="-301" type="line"/>
      <point x="689" y="-12" type="line"/>
      <point x="939" y="22"/>
      <point x="1063" y="190"/>
      <point x="1063" y="371" type="curve" smooth="yes"/>
      <point x="1063" y="616"/>
      <point x="870" y="730"/>
      <point x="689" y="788" type="curve"/>
      <point x="689" y="1276" type="line"/>
      <point x="794" y="1261"/>
      <point x="884" y="1214"/>
      <point x="961" y="1139" type="curve"/>
      <point x="1049" y="1229" type="line"/>
      <point x="971" y="1303"/>
      <point x="848" y="1373"/>
      <point x="689" y="1390" type="curve"/>
    </contour>
    <contour>
      <point x="689" y="651" type="line"/>
      <point x="857" y="584"/>
      <point x="915" y="501"/>
      <point x="915" y="379" type="curve" smooth="yes"/>
      <point x="915" y="224"/>
      <point x="839" y="137"/>
      <point x="689" y="107" type="curve"/>
    </contour>
    <contour>
      <point x="562" y="1271" type="curve"/>
      <point x="562" y="827" type="line"/>
      <point x="403" y="890"/>
      <point x="355" y="957"/>
      <point x="355" y="1057" type="curve" smooth="yes"/>
      <point x="355" y="1185"/>
      <point x="444" y="1251"/>
    </contour>
  </outline>
</glyph>
<glyph name="five" format="2">
  <advance width="1200"/>
  <unicode hex="0035"/>
  <outline>
    <contour>
      <point x="957" y="1374" type="line"/>
      <point x="262" y="1374" type="line"/>
      <point x="262" y="703" type="line"/>
      <point x="374" y="703" type="line"/>
      <point x="460" y="732"/>
      <point x="512" y="749"/>
      <point x="603" y="749" type="curve" smooth="yes"/>
      <point x="749" y="749"/>
      <point x="869" y="675"/>
      <point x="869" y="438" type="curve" smooth="yes"/>
      <point x="869" y="204"/>
      <point x="759" y="89"/>
      <point x="567" y="89" type="curve" smooth="yes"/>
      <point x="442" y="89"/>
      <point x="346" y="129"/>
      <point x="257" y="215" type="curve"/>
      <point x="177" y="134" type="line"/>
      <point x="285" y="36"/>
      <point x="402" y="-20"/>
      <point x="558" y="-20" type="curve" smooth="yes"/>
      <point x="829" y="-20"/>
      <point x="1000" y="157"/>
      <point x="1000" y="430" type="curve" smooth="yes"/>
      <point x="1000" y="704"/>
      <point x="856" y="857"/>
      <point x="628" y="857" type="curve" smooth="yes"/>
      <point x="539" y="857"/>
      <point x="469" y="842"/>
      <point x="380" y="793" type="curve"/>
      <point x="380" y="1268" type="line"/>
      <point x="935" y="1268" type="line"/>
    </contour>
  </outline>
</glyph>
<glyph name="equal" format="2">
  <advance width="1200"/>
  <unicode hex="003D"/>
  <outline>
    <contour>
      <point x="970" y="863" type="line"/>
      <point x="230" y="863" type="line"/>
      <point x="230" y="748" type="line"/>
      <point x="970" y="748" type="line"/>
    </contour>
    <contour>
      <point x="970" y="496" type="line"/>
      <point x="230" y="496" type="line"/>
      <point x="230" y="380" type="line"/>
      <point x="970" y="380" type="line"/>
    </contour>
  </outline>
</glyph>
<glyph name="greater" format="2">
  <advance width="1200"/>
  <unicode hex="003E"/>
  <outline>
    <contour>
      <point x="251" y="1177" type="line"/>
      <point x="187" y="1080" type="line"/>
      <point x="910" y="625" type="line"/>
      <point x="187" y="173" type="line"/>
      <point x="262" y="76" type="line"/>
      <point x="1016" y="549" type="line"/>
      <point x="1016" y="705" type="line"/>
    </contour>
  </outline>
</glyph>
<glyph name="K" format="2">
  <advance width="1200"/>
  <unicode hex="004B"/>
  <anchor x="658" y="0" name="bottom"/>
  <anchor x="669" y="1374" name="top"/>
  <outline>
    <contour>
      <point x="364" y="0" type="line"/>
      <point x="364" y="1374" type="line"/>
      <point x="237" y="1374" type="line"/>
      <point x="237" y="0" type="line"/>
    </contour>
    <contour>
      <point x="374" y="734" type="line"/>
      <point x="993" y="0" type="line"/>
      <point x="1160" y="0" type="line"/>
      <point x="541" y="741" type="line"/>
      <point x="1122" y="1374" type="line"/>
      <point x="965" y="1374" type="line"/>
    </contour>
  </outline>
</glyph>
<glyph name="N" format="2">
  <advance width="1200"/>
  <unicode hex="004E"/>
  <anchor x="600" y="0" name="bottom"/>
  <anchor x="591" y="1374" name="top"/>
  <outline>
    <contour>
      <point x="817" y="0" type="line"/>
      <point x="1014" y="0" type="line"/>
      <point x="1014" y="1374" type="line"/>
      <point x="888" y="1374" type="line"/>
      <point x="888" y="638" type="line" smooth="yes"/>
      <point x="888" y="391"/>
      <point x="907" y="163"/>
      <point x="903" y="127" type="curve"/>
      <point x="369" y="1374" type="line"/>
      <point x="186" y="1374" type="line"/>
      <point x="186" y="0" type="line"/>
      <point x="312" y="0" type="line"/>
      <point x="312" y="740" type="line" smooth="yes"/>
      <point x="312" y="944"/>
      <point x="294" y="1197"/>
      <point x="297" y="1239" type="curve"/>
    </contour>
  </outline>
</glyph>
<glyph name="O" format="2">
  <advance width="1200"/>
  <unicode hex="004F"/>
  <anchor x="600" y="0" name="bottom"/>
  <anchor x="600" y="1374" name="top"/>
  <anchor x="217" y="1374" name="topleft"/>
  <outline>
    <contour>
      <point x="1093" y="685" type="curve" smooth="yes"/>
      <point x="1093" y="1104"/>
      <point x="927" y="1393"/>
      <point x="600" y="1393" type="curve" smooth="yes"/>
      <point x="273" y="1393"/>
      <point x="107" y="1094"/>
      <point x="107" y="682" type="curve" smooth="yes"/>
      <point x="107" y="264"/>
      <point x="273" y="-20"/>
      <point x="600" y="-20" type="curve" smooth="yes"/>
      <point x="927" y="-20"/>
      <point x="1093" y="274"/>
    </contour>
    <contour>
      <point x="957" y="685" type="curve" smooth="yes"/>
      <point x="957" y="309"/>
      <point x="853" y="98"/>
      <point x="600" y="98" type="curve" smooth="yes"/>
      <point x="353" y="98"/>
      <point x="243" y="308"/>
      <point x="243" y="682" type="curve" smooth="yes"/>
      <point x="243" y="1057"/>
      <point x="345" y="1275"/>
      <point x="600" y="1275" type="curve" smooth="yes"/>
      <point x="855" y="1275"/>
      <point x="957" y="1060"/>
    </contour>
  </outline>
</glyph>
<glyph name="R" format="2">
  <advance width="1200"/>
  <unicode hex="0052"/>
  <anchor x="591" y="0" name="bottom"/>
  <anchor x="600" y="1374" name="top"/>
  <outline>
    <contour>
      <point x="1061" y="999" type="curve" smooth="yes"/>
      <point x="1061" y="1243"/>
      <point x="887" y="1374"/>
      <point x="558" y="1374" type="curve" smooth="yes"/>
      <point x="229" y="1374" type="line"/>
      <point x="229" y="0" type="line"/>
      <point x="357" y="0" type="line"/>
      <point x="357" y="609" type="line"/>
      <point x="571" y="609" type="line"/>
      <point x="969" y="0" type="line"/>
      <point x="1129" y="0" type="line"/>
      <point x="707" y="619" type="line"/>
      <point x="907" y="660"/>
      <point x="1061" y="789"/>
    </contour>
    <contour>
      <point x="920" y="999" type="curve" smooth="yes"/>
      <point x="920" y="795"/>
      <point x="795" y="719"/>
      <point x="580" y="719" type="curve" smooth="yes"/>
      <point x="357" y="719" type="line"/>
      <point x="357" y="1264" type="line"/>
      <point x="584" y="1264" type="line" smooth="yes"/>
      <point x="814" y="1264"/>
      <point x="920" y="1188"/>
    </contour>
  </outline>
</glyph>
<glyph name="V" format="2">
  <advance width="1200"/>
  <unicode hex="0056"/>
  <anchor x="600" y="0" name="bottom"/>
  <anchor x="600" y="1374" name="top"/>
  <outline>
    <contour>
      <point x="603" y="180" type="line"/>
      <point x="203" y="1374" type="line"/>
      <point x="64" y="1374" type="line"/>
      <point x="544" y="0" type="line"/>
      <point x="656" y="0" type="line"/>
      <point x="1135" y="1374" type="line"/>
      <point x="1008" y="1374" type="line"/>
    </contour>
  </outline>
</glyph>
<glyph name="g" format="2">
  <advance width="1200"/>
  <unicode hex="0067"/>
  <anchor x="600" y="-386" name="bottom "/>
  <anchor x="582" y="1050" name="top"/>
  <outline>
    <contour>
      <point x="1049" y="1145" type="line"/>
      <point x="927" y="1097"/>
      <point x="849" y="1073"/>
      <point x="575" y="1070" type="curve" smooth="yes"/>
      <point x="335" y="1070"/>
      <point x="171" y="916"/>
      <point x="171" y="711" type="curve" smooth="yes"/>
      <point x="171" y="576"/>
      <point x="228" y="485"/>
      <point x="344" y="424" type="curve"/>
      <point x="268" y="373"/>
      <point x="230" y="309"/>
      <point x="230" y="245" type="curve" smooth="yes"/>
      <point x="230" y="143"/>
      <point x="308" y="51"/>
      <point x="476" y="51" type="curve" smooth="yes"/>
      <point x="670" y="51" type="line" smooth="yes"/>
      <point x="814" y="51"/>
      <point x="932" y="-3"/>
      <point x="932" y="-114" type="curve" smooth="yes"/>
      <point x="932" y="-243"/>
      <point x="813" y="-303"/>
      <point x="572" y="-303" type="curve" smooth="yes"/>
      <point x="326" y="-303"/>
      <point x="266" y="-240"/>
      <point x="266" y="-108" type="curve"/>
      <point x="152" y="-108" type="line"/>
      <point x="152" y="-324"/>
      <point x="261" y="-418"/>
      <point x="576" y="-418" type="curve" smooth="yes"/>
      <point x="879" y="-418"/>
      <point x="1060" y="-310"/>
      <point x="1060" y="-106" type="curve" smooth="yes"/>
      <point x="1060" y="51"/>
      <point x="899" y="173"/>
      <point x="697" y="173" type="curve" smooth="yes"/>
      <point x="503" y="173" type="line" smooth="yes"/>
      <point x="392" y="173"/>
      <point x="355" y="213"/>
      <point x="355" y="268" type="curve" smooth="yes"/>
      <point x="355" y="313"/>
      <point x="381" y="357"/>
      <point x="415" y="383" type="curve"/>
      <point x="461" y="367"/>
      <point x="504" y="360"/>
      <point x="583" y="360" type="curve" smooth="yes"/>
      <point x="824" y="360"/>
      <point x="963" y="510"/>
      <point x="963" y="719" type="curve" smooth="yes"/>
      <point x="963" y="834"/>
      <point x="905" y="926"/>
      <point x="786" y="981" type="curve"/>
      <point x="900" y="981"/>
      <point x="1000" y="982"/>
      <point x="1095" y="1009" type="curve"/>
    </contour>
    <contour>
      <point x="572" y="972" type="curve" smooth="yes"/>
      <point x="741" y="972"/>
      <point x="827" y="880"/>
      <point x="827" y="710" type="curve" smooth="yes"/>
      <point x="827" y="545"/>
      <point x="739" y="446"/>
      <point x="578" y="446" type="curve" smooth="yes"/>
      <point x="384" y="446"/>
      <point x="299" y="559"/>
      <point x="299" y="709" type="curve" smooth="yes"/>
      <point x="299" y="859"/>
      <point x="382" y="972"/>
    </contour>
  </outline>
</glyph>
<glyph name="h" format="2">
  <advance width="1200"/>
  <unicode hex="0068"/>
  <anchor x="600" y="0" name="bottom"/>
  <anchor x="600" y="526" name="center"/>
  <anchor x="600" y="1475" name="top"/>
  <outline>
    <contour>
      <point x="343" y="1487" type="line"/>
      <point x="219" y="1472" type="line"/>
      <point x="219" y="0" type="line"/>
      <point x="343" y="0" type="line"/>
      <point x="343" y="777" type="line"/>
      <point x="397" y="860"/>
      <point x="518" y="966"/>
      <point x="654" y="966" type="curve" smooth="yes"/>
      <point x="793" y="966"/>
      <point x="860" y="907"/>
      <point x="860" y="782" type="curve" smooth="yes"/>
      <point x="860" y="0" type="line"/>
      <point x="984" y="0" type="line"/>
      <point x="984" y="760" type="line" smooth="yes"/>
      <point x="984" y="953"/>
      <point x="897" y="1069"/>
      <point x="686" y="1069" type="curve" smooth="yes"/>
      <point x="560" y="1069"/>
      <point x="424" y="1009"/>
      <point x="343" y="895" type="curve"/>
    </contour>
  </outline>
</glyph>
<glyph name="o" format="2">
  <advance width="1200"/>
  <unicode hex="006F"/>
  <anchor x="600" y="0" name="bottom"/>
  <anchor x="600" y="1050" name="top"/>
  <outline>
    <contour>
      <point x="603" y="1069" type="curve" smooth="yes"/>
      <point x="314" y="1069"/>
      <point x="166" y="844"/>
      <point x="166" y="523" type="curve" smooth="yes"/>
      <point x="166" y="200"/>
      <point x="311" y="-20"/>
      <point x="600" y="-20" type="curve" smooth="yes"/>
      <point x="886" y="-20"/>
      <point x="1034" y="213"/>
      <point x="1034" y="525" type="curve" smooth="yes"/>
      <point x="1034" y="857"/>
      <point x="891" y="1069"/>
    </contour>
    <contour>
      <point x="603" y="960" type="curve" smooth="yes"/>
      <point x="797" y="960"/>
      <point x="898" y="820"/>
      <point x="898" y="525" type="curve" smooth="yes"/>
      <point x="898" y="232"/>
      <point x="797" y="90"/>
      <point x="600" y="90" type="curve" smooth="yes"/>
      <point x="403" y="90"/>
      <point x="302" y="232"/>
      <point x="302" y="523" type="curve" smooth="yes"/>
      <point x="302" y="820"/>
      <point x="406" y="960"/>
    </contour>
  </outline>
</glyph>
<glyph name="r" format="2">
  <advance width="1200"/>
  <unicode hex="0072"/>
  <anchor x="462" y="0" name="bottom"/>
  <anchor x="664" y="1050" name="top"/>
  <outline>
    <contour>
      <point x="229" y="0" type="line"/>
      <point x="740" y="0" type="line"/>
      <point x="740" y="104" type="line"/>
      <point x="524" y="104" type="line"/>
      <point x="524" y="592" type="line"/>
      <point x="599" y="841"/>
      <point x="715" y="952"/>
      <point x="885" y="952" type="curve" smooth="yes"/>
      <point x="930" y="952"/>
      <point x="960" y="946"/>
      <point x="1007" y="933" type="curve"/>
      <point x="1042" y="1050" type="line"/>
      <point x="994" y="1062"/>
      <point x="955" y="1071"/>
      <point x="900" y="1071" type="curve" smooth="yes"/>
      <point x="704" y="1071"/>
      <point x="600" y="969"/>
      <point x="518" y="798" type="curve"/>
      <point x="495" y="1050" type="line"/>
      <point x="229" y="1050" type="line"/>
      <point x="229" y="945" type="line"/>
      <point x="400" y="945" type="line"/>
      <point x="400" y="104" type="line"/>
      <point x="229" y="104" type="line"/>
    </contour>
    <contour>
      <point x="908" y="720" type="line"/>
      <point x="1028" y="720" type="line"/>
      <point x="1042" y="1050" type="line"/>
      <point x="916" y="1050" type="line"/>
      <point x="908" y="925" type="line"/>
    </contour>
  </outline>
</glyph>
<glyph name="t" format="2">
  <advance width="1200"/>
  <unicode hex="0074"/>
  <anchor x="749" y="0" name="bottom"/>
  <anchor x="600" y="526" name="center"/>
  <anchor x="482" y="1304" name="top"/>
  <anchor x="641" y="1471" name="topright"/>
  <outline>
    <contour>
      <point x="1020" y="50" type="curve"/>
      <point x="966" y="139" type="line"/>
      <point x="907" y="108"/>
      <point x="840" y="88"/>
      <point x="760" y="88" type="curve" smooth="yes"/>
      <point x="604" y="88"/>
      <point x="544" y="157"/>
      <point x="544" y="278" type="curve" smooth="yes"/>
      <point x="544" y="946" type="line"/>
      <point x="897" y="946" type="line"/>
      <point x="914" y="1050" type="line"/>
      <point x="544" y="1050" type="line"/>
      <point x="544" y="1307" type="line"/>
      <point x="420" y="1292" type="line"/>
      <point x="420" y="1050" type="line"/>
      <point x="172" y="1050" type="line"/>
      <point x="172" y="946" type="line"/>
      <point x="420" y="946" type="line"/>
      <point x="420" y="275" type="line" smooth="yes"/>
      <point x="420" y="106"/>
      <point x="546" y="-20"/>
      <point x="757" y="-20" type="curve" smooth="yes"/>
      <point x="841" y="-20"/>
      <point x="951" y="5"/>
    </contour>
  </outline>
</glyph>
<glyph name="v" format="2">
  <advance width="1200"/>
  <unicode hex="0076"/>
  <anchor x="600" y="0" name="bottom"/>
  <anchor x="600" y="1050" name="top"/>
  <outline>
    <contour>
      <point x="1060" y="1050" type="line"/>
      <point x="930" y="1050" type="line"/>
      <point x="603" y="126" type="line"/>
      <point x="269" y="1050" type="line"/>
      <point x="140" y="1050" type="line"/>
      <point x="526" y="0" type="line"/>
      <point x="669" y="0" type="line"/>
    </contour>
  </outline>
</glyph>
<glyph name="z" format="2">
  <advance width="1200"/>
  <unicode hex="007A"/>
  <anchor x="600" y="0" name="bottom"/>
  <anchor x="623" y="1050" name="top"/>
  <outline>
    <contour>
      <point x="379" y="115" type="line"/>
      <point x="977" y="948" type="line"/>
      <point x="977" y="1050" type="line"/>
      <point x="270" y="1050" type="line"/>
      <point x="270" y="932" type="line"/>
      <point x="824" y="932" type="line"/>
      <point x="223" y="99" type="line"/>
      <point x="223" y="0" type="line"/>
      <point x="962" y="0" type="line"/>
      <point x="981" y="115" type="line"/>
    </contour>
  </outline>
</glyph>
<glyph name="cent" format="2">
  <advance width="1200"/>
  <unicode hex="00A2"/>
  <anchor x="659" y="0" name="bottomAttach"/>
  <outline>
    <contour>
      <point x="734" y="1361" type="line"/>
      <point x="610" y="1361" type="line"/>
      <point x="610" y="1059" type="line"/>
      <point x="353" y="1027"/>
      <point x="228" y="809"/>
      <point x="228" y="521" type="curve" smooth="yes"/>
      <point x="228" y="215"/>
      <point x="355" y="18"/>
      <point x="608" y="-9" type="curve"/>
      <point x="608" y="-302" type="line"/>
      <point x="734" y="-302" type="line"/>
      <point x="734" y="-10" type="line"/>
      <point x="816" y="1"/>
      <point x="897" y="27"/>
      <point x="972" y="92" type="curve"/>
      <point x="909" y="186" type="line"/>
      <point x="818" y="116"/>
      <point x="746" y="94"/>
      <point x="665" y="94" type="curve" smooth="yes"/>
      <point x="479" y="94"/>
      <point x="366" y="227"/>
      <point x="366" y="521" type="curve" smooth="yes"/>
      <point x="366" y="811"/>
      <point x="479" y="959"/>
      <point x="664" y="959" type="curve" smooth="yes"/>
      <point x="743" y="959"/>
      <point x="811" y="942"/>
      <point x="903" y="875" type="curve"/>
      <point x="972" y="963" type="line"/>
      <point x="896" y="1024"/>
      <point x="816" y="1053"/>
      <point x="734" y="1060" type="curve"/>
    </contour>
  </outline>
</glyph>
<glyph name="registered" format="2">
  <advance width="1200"/>
  <unicode hex="00AE"/>
  <outline>
    <contour>
      <point x="599" y="1486" type="curve" smooth="yes"/>
      <point x="329" y="1486"/>
      <point x="106" y="1260"/>
      <point x="106" y="988" type="curve" smooth="yes"/>
      <point x="106" y="716"/>
      <point x="329" y="494"/>
      <point x="599" y="494" type="curve" smooth="yes"/>
      <point x="871" y="494"/>
      <point x="1092" y="716"/>
      <point x="1092" y="988" type="curve" smooth="yes"/>
      <point x="1092" y="1260"/>
      <point x="871" y="1486"/>
    </contour>
    <contour>
      <point x="599" y="1404" type="curve" smooth="yes"/>
      <point x="830" y="1404"/>
      <point x="1003" y="1216"/>
      <point x="1003" y="988" type="curve" smooth="yes"/>
      <point x="1003" y="760"/>
      <point x="830" y="575"/>
      <point x="599" y="575" type="curve" smooth="yes"/>
      <point x="369" y="575"/>
      <point x="195" y="760"/>
      <point x="195" y="988" type="curve" smooth="yes"/>
      <point x="195" y="1216"/>
      <point x="369" y="1404"/>
    </contour>
    <contour>
      <point x="574" y="1273" type="curve" smooth="yes"/>
      <point x="406" y="1273" type="line"/>
      <point x="406" y="711" type="line"/>
      <point x="510" y="711" type="line"/>
      <point x="510" y="931" type="line"/>
      <point x="570" y="931" type="line"/>
      <point x="729" y="711" type="line"/>
      <point x="852" y="711" type="line"/>
      <point x="675" y="947" type="line"/>
      <point x="754" y="967"/>
      <point x="814" y="1018"/>
      <point x="814" y="1106" type="curve" smooth="yes"/>
      <point x="814" y="1214"/>
      <point x="735" y="1273"/>
    </contour>
    <contour>
      <point x="574" y="1191" type="line" smooth="yes"/>
      <point x="665" y="1191"/>
      <point x="706" y="1160"/>
      <point x="706" y="1104" type="curve" smooth="yes"/>
      <point x="706" y="1034"/>
      <point x="659" y="1010"/>
      <point x="579" y="1010" type="curve" smooth="yes"/>
      <point x="510" y="1010" type="line"/>
      <point x="510" y="1191" type="line"/>
    </contour>
  </outline>
</glyph>
<glyph name="cedilla" format="2">
  <advance width="1200"/>
  <unicode hex="00B8"/>
  <anchor x="600" y="0" name="_bottom"/>
  <outline>
    <contour>
      <point x="693" y="-278" type="curve" smooth="yes"/>
      <point x="693" y="-342"/>
      <point x="641" y="-366"/>
      <point x="569" y="-366" type="curve" smooth="yes"/>
      <point x="525" y="-366"/>
      <point x="469" y="-355"/>
      <point x="432" y="-335" type="curve"/>
      <point x="384" y="-418" type="line"/>
      <point x="435" y="-447"/>
      <point x="509" y="-463"/>
      <point x="585" y="-463" type="curve" smooth="yes"/>
      <point x="698" y="-463"/>
      <point x="813" y="-407"/>
      <point x="813" y="-277" type="curve" smooth="yes"/>
      <point x="813" y="-206"/>
      <point x="763" y="-129"/>
      <point x="634" y="-119" type="curve"/>
      <point x="634" y="32" type="line"/>
      <point x="537" y="32" type="line"/>
      <point x="523" y="-187" type="line"/>
      <point x="625" y="-187"/>
      <point x="693" y="-201"/>
    </contour>
  </outline>
</glyph>
<glyph name="guillemetright" format="2">
  <advance width="1200"/>
  <unicode hex="00BB"/>
  <outline>
    <contour>
      <point x="863" y="591" type="line"/>
      <point x="581" y="183" type="line"/>
      <point x="658" y="133" type="line"/>
      <point x="1014" y="541" type="line"/>
      <point x="1014" y="639" type="line"/>
      <point x="658" y="1051" type="line"/>
      <point x="581" y="1001" type="line"/>
    </contour>
    <contour>
      <point x="465" y="591" type="line"/>
      <point x="183" y="183" type="line"/>
      <point x="260" y="133" type="line"/>
      <point x="614" y="541" type="line"/>
      <point x="614" y="639" type="line"/>
      <point x="260" y="1051" type="line"/>
      <point x="183" y="1001" type="line"/>
    </contour>
  </outline>
</glyph>
<glyph name="AE" format="2">
  <advance width="1200"/>
  <unicode hex="00C6"/>
  <anchor x="600" y="0" name="bottom"/>
  <anchor x="729" y="1374" name="top"/>
  <outline>
    <contour>
      <point x="669" y="365" type="line"/>
      <point x="749" y="0" type="line"/>
      <point x="1218" y="0" type="line"/>
      <point x="1218" y="117" type="line"/>
      <point x="861" y="117" type="line"/>
      <point x="748" y="639" type="line"/>
      <point x="1115" y="639" type="line"/>
      <point x="1115" y="756" type="line"/>
      <point x="725" y="756" type="line"/>
      <point x="613" y="1257" type="line"/>
      <point x="1116" y="1257" type="line"/>
      <point x="1133" y="1374" type="line"/>
      <point x="396" y="1374" type="line"/>
      <point x="-24" y="0" type="line"/>
      <point x="112" y="0" type="line"/>
      <point x="224" y="365" type="line"/>
    </contour>
    <contour>
      <point x="272" y="487" type="line"/>
      <point x="478" y="1262" type="line"/>
      <point x="638" y="487" type="line"/>
    </contour>
  </outline>
</glyph>
<glyph name="Oslash" format="2">
  <advance width="1200"/>
  <unicode hex="00D8"/>
  <anchor x="600" y="0" name="bottom"/>
  <anchor x="600" y="1374" name="top"/>
  <outline>
    <contour>
      <point x="600" y="1393" type="curve" smooth="yes"/>
      <point x="273" y="1393"/>
      <point x="107" y="1094"/>
      <point x="107" y="682" type="curve" smooth="yes"/>
      <point x="107" y="264"/>
      <point x="270" y="-20"/>
      <point x="600" y="-20" type="curve" smooth="yes"/>
      <point x="927" y="-20"/>
      <point x="1093" y="274"/>
      <point x="1093" y="685" type="curve" smooth="yes"/>
      <point x="1093" y="1104"/>
      <point x="930" y="1393"/>
    </contour>
    <contour>
      <point x="803" y="1606" type="line"/>
      <point x="737" y="1374" type="line"/>
      <point x="712" y="1277" type="line"/>
      <point x="379" y="120" type="line"/>
      <point x="348" y="54" type="line"/>
      <point x="271" y="-189" type="line"/>
      <point x="400" y="-221" type="line"/>
      <point x="471" y="11" type="line"/>
      <point x="479" y="73" type="line"/>
      <point x="822" y="1263" type="line"/>
      <point x="853" y="1317" type="line"/>
      <point x="932" y="1575" type="line"/>
    </contour>
    <contour>
      <point x="600" y="1272" type="curve" smooth="yes"/>
      <point x="850" y="1272"/>
      <point x="952" y="1115"/>
      <point x="952" y="685" type="curve" smooth="yes"/>
      <point x="952" y="312"/>
      <point x="850" y="101"/>
      <point x="600" y="101" type="curve" smooth="yes"/>
      <point x="358" y="101"/>
      <point x="248" y="253"/>
      <point x="248" y="682" type="curve" smooth="yes"/>
      <point x="248" y="1054"/>
      <point x="349" y="1272"/>
    </contour>
  </outline>
</glyph>
<glyph name="germandbls" format="2">
  <advance width="1200"/>
  <unicode hex="00DF"/>
  <outline>
    <contour>
      <point x="596" y="1492" type="curve" smooth="yes"/>
      <point x="362" y="1492"/>
      <point x="213" y="1351"/>
      <point x="213" y="1068" type="curve" smooth="yes"/>
      <point x="213" y="0" type="line"/>
      <point x="337" y="0" type="line"/>
      <point x="337" y="1079" type="line" smooth="yes"/>
      <point x="337" y="1303"/>
      <point x="433" y="1383"/>
      <point x="597" y="1383" type="curve" smooth="yes"/>
      <point x="765" y="1383"/>
      <point x="811" y="1270"/>
      <point x="811" y="1195" type="curve" smooth="yes"/>
      <point x="811" y="1045"/>
      <point x="553" y="1040"/>
      <point x="553" y="845" type="curve" smooth="yes"/>
      <point x="553" y="583"/>
      <point x="979" y="589"/>
      <point x="979" y="322" type="curve" smooth="yes"/>
      <point x="979" y="161"/>
      <point x="883" y="85"/>
      <point x="732" y="85" type="curve" smooth="yes"/>
      <point x="667" y="85"/>
      <point x="591" y="107"/>
      <point x="539" y="138" type="curve"/>
      <point x="481" y="51" type="line"/>
      <point x="551" y="4"/>
      <point x="633" y="-20"/>
      <point x="740" y="-20" type="curve" smooth="yes"/>
      <point x="932" y="-20"/>
      <point x="1104" y="103"/>
      <point x="1104" y="333" type="curve" smooth="yes"/>
      <point x="1104" y="667"/>
      <point x="687" y="675"/>
      <point x="687" y="855" type="curve" smooth="yes"/>
      <point x="687" y="980"/>
      <point x="927" y="1012"/>
      <point x="927" y="1212" type="curve" smooth="yes"/>
      <point x="927" y="1380"/>
      <point x="787" y="1492"/>
    </contour>
  </outline>
</glyph>
<glyph name="ae" format="2">
  <advance width="1200"/>
  <unicode hex="00E6"/>
  <anchor x="621" y="1050" name="top"/>
  <outline>
    <contour>
      <point x="873" y="1069" type="curve" smooth="yes"/>
      <point x="738" y="1069"/>
      <point x="647" y="999"/>
      <point x="608" y="883" type="curve"/>
      <point x="572" y="996"/>
      <point x="501" y="1069"/>
      <point x="345" y="1069" type="curve" smooth="yes"/>
      <point x="265" y="1069"/>
      <point x="165" y="1043"/>
      <point x="81" y="1003" type="curve"/>
      <point x="119" y="889" type="line"/>
      <point x="207" y="927"/>
      <point x="261" y="945"/>
      <point x="333" y="945" type="curve" smooth="yes"/>
      <point x="450" y="945"/>
      <point x="517" y="885"/>
      <point x="517" y="735" type="curve" smooth="yes"/>
      <point x="517" y="637" type="line"/>
      <point x="424" y="637" type="line" smooth="yes"/>
      <point x="141" y="637"/>
      <point x="-12" y="518"/>
      <point x="-12" y="301" type="curve" smooth="yes"/>
      <point x="-12" y="106"/>
      <point x="109" y="-20"/>
      <point x="295" y="-20" type="curve" smooth="yes"/>
      <point x="428" y="-20"/>
      <point x="507" y="32"/>
      <point x="592" y="179" type="curve"/>
      <point x="668" y="42"/>
      <point x="757" y="-20"/>
      <point x="897" y="-20" type="curve" smooth="yes"/>
      <point x="1005" y="-20"/>
      <point x="1085" y="20"/>
      <point x="1165" y="83" type="curve"/>
      <point x="1100" y="185" type="line"/>
      <point x="1031" y="132"/>
      <point x="976" y="101"/>
      <point x="894" y="101" type="curve" smooth="yes"/>
      <point x="745" y="101"/>
      <point x="677" y="215"/>
      <point x="659" y="469" type="curve"/>
      <point x="1214" y="469" type="line"/>
      <point x="1216" y="493"/>
      <point x="1217" y="525"/>
      <point x="1217" y="561" type="curve" smooth="yes"/>
      <point x="1217" y="872"/>
      <point x="1109" y="1069"/>
    </contour>
    <contour>
      <point x="517" y="537" type="line"/>
      <point x="517" y="448"/>
      <point x="528" y="368"/>
      <point x="546" y="293" type="curve"/>
      <point x="474" y="158"/>
      <point x="409" y="88"/>
      <point x="309" y="88" type="curve" smooth="yes"/>
      <point x="211" y="88"/>
      <point x="144" y="162"/>
      <point x="144" y="309" type="curve" smooth="yes"/>
      <point x="144" y="445"/>
      <point x="210" y="537"/>
      <point x="420" y="537" type="curve" smooth="yes"/>
    </contour>
    <contour>
      <point x="870" y="947" type="curve" smooth="yes"/>
      <point x="1020" y="947"/>
      <point x="1070" y="821"/>
      <point x="1075" y="589" type="curve"/>
      <point x="659" y="589" type="line"/>
      <point x="679" y="852"/>
      <point x="739" y="947"/>
    </contour>
  </outline>
</glyph>
<glyph name="thorn" format="2">
  <advance width="1200"/>
  <unicode hex="00FE"/>
  <anchor x="600" y="-386" name="bottom"/>
  <anchor x="600" y="1475" name="top"/>
  <outline>
    <contour>
      <point x="343" y="1492" type="line"/>
      <point x="219" y="1475" type="line"/>
      <point x="219" y="-418" type="line"/>
      <point x="343" y="-401" type="line"/>
      <point x="343" y="105" type="line"/>
      <point x="415" y="21"/>
      <point x="511" y="-20"/>
      <point x="629" y="-20" type="curve" smooth="yes"/>
      <point x="907" y="-20"/>
      <point x="1034" y="209"/>
      <point x="1034" y="525" type="curve" smooth="yes"/>
      <point x="1034" y="851"/>
      <point x="937" y="1069"/>
      <point x="655" y="1069" type="curve" smooth="yes"/>
      <point x="534" y="1069"/>
      <point x="424" y="1014"/>
      <point x="343" y="913" type="curve"/>
    </contour>
    <contour>
      <point x="633" y="963" type="curve" smooth="yes"/>
      <point x="817" y="963"/>
      <point x="898" y="806"/>
      <point x="898" y="527" type="curve" smooth="yes"/>
      <point x="898" y="234"/>
      <point x="803" y="93"/>
      <point x="609" y="93" type="curve" smooth="yes"/>
      <point x="500" y="93"/>
      <point x="401" y="149"/>
      <point x="343" y="236" type="curve"/>
      <point x="343" y="780" type="line"/>
      <point x="403" y="868"/>
      <point x="503" y="963"/>
    </contour>
  </outline>
</glyph>
<glyph name="dcroat" format="2">
  <advance width="1200"/>
  <unicode hex="0111"/>
  <anchor x="617" y="0" name="bottom"/>
  <anchor x="617" y="526" name="center"/>
  <anchor x="617" y="1475" name="top"/>
  <anchor x="1067" y="1475" name="topright"/>
  <outline>
    <contour>
      <point x="998" y="1317" type="line"/>
      <point x="502" y="1317" type="line"/>
      <point x="502" y="1198" type="line"/>
      <point x="874" y="1198" type="line"/>
      <point x="1155" y="1198" type="line"/>
      <point x="1155" y="1317" type="line"/>
    </contour>
    <component base="d" xOffset="17"/>
  </outline>
</glyph>
<glyph name="dotlessi" format="2">
  <advance width="1200"/>
  <unicode hex="0131"/>
  <anchor x="738" y="0" name="ogonek"/>
  <anchor x="604" y="1050" name="top"/>
  <outline>
    <contour>
      <point x="718" y="1050" type="line"/>
      <point x="272" y="1050" type="line"/>
      <point x="272" y="942" type="line"/>
      <point x="594" y="942" type="line"/>
      <point x="594" y="108" type="line"/>
      <point x="262" y="108" type="line"/>
      <point x="262" y="0" type="line"/>
      <point x="1023" y="0" type="line"/>
      <point x="1023" y="108" type="line"/>
      <point x="718" y="108" type="line"/>
    </contour>
  </outline>
</glyph>
<glyph name="IJ" format="2">
  <advance width="1200"/>
  <unicode hex="0132"/>
  <outline>
    <contour>
      <point x="397" y="-141" type="curve"/>
      <point x="412" y="-244" type="line"/>
      <point x="946" y="-207"/>
      <point x="1051" y="95"/>
      <point x="1051" y="386" type="curve" smooth="yes"/>
      <point x="1051" y="1374" type="line"/>
      <point x="25" y="1374" type="line"/>
      <point x="25" y="1248" type="line"/>
      <point x="241" y="1248" type="line"/>
      <point x="241" y="125" type="line"/>
      <point x="25" y="125" type="line"/>
      <point x="25" y="0" type="line"/>
      <point x="558" y="0" type="line"/>
      <point x="558" y="125" type="line"/>
      <point x="382" y="125" type="line"/>
      <point x="382" y="1248" type="line"/>
      <point x="918" y="1248" type="line"/>
      <point x="918" y="404" type="line" smooth="yes"/>
      <point x="918" y="98"/>
      <point x="814" y="-109"/>
    </contour>
  </outline>
</glyph>
<glyph name="lslash" format="2">
  <advance width="1200"/>
  <unicode hex="0142"/>
  <anchor x="724" y="0" name="bottom"/>
  <anchor x="1116" y="766" name="center"/>
  <anchor x="535" y="1475" name="top"/>
  <anchor x="675" y="1475" name="topright"/>
  <outline>
    <contour>
      <point x="462" y="763" type="line"/>
      <point x="254" y="638" type="line"/>
      <point x="314" y="549" type="line"/>
      <point x="586" y="717" type="line"/>
      <point x="840" y="873" type="line"/>
      <point x="781" y="961" type="line"/>
    </contour>
    <component base="l"/>
  </outline>
</glyph>
<glyph name="florin" format="2">
  <advance width="1200"/>
  <unicode hex="0192"/>
  <outline>
    <contour>
      <point x="733" y="1492" type="curve" smooth="yes"/>
      <point x="545" y="1492"/>
      <point x="437" y="1378"/>
      <point x="437" y="1215" type="curve" smooth="yes"/>
      <point x="437" y="1050" type="line"/>
      <point x="268" y="1050" type="line"/>
      <point x="268" y="944" type="line"/>
      <point x="437" y="944" type="line"/>
      <point x="437" y="30" type="line" smooth="yes"/>
      <point x="437" y="-211"/>
      <point x="378" y="-260"/>
      <point x="240" y="-327" type="curve"/>
      <point x="285" y="-415" type="line"/>
      <point x="493" y="-317"/>
      <point x="559" y="-238"/>
      <point x="559" y="65" type="curve" smooth="yes"/>
      <point x="559" y="944" type="line"/>
      <point x="804" y="944" type="line"/>
      <point x="820" y="1050" type="line"/>
      <point x="559" y="1050" type="line"/>
      <point x="559" y="1223" type="line" smooth="yes"/>
      <point x="559" y="1328"/>
      <point x="606" y="1383"/>
      <point x="725" y="1383" type="curve" smooth="yes"/>
      <point x="780" y="1383"/>
      <point x="846" y="1373"/>
      <point x="911" y="1343" type="curve"/>
      <point x="958" y="1441" type="line"/>
      <point x="875" y="1478"/>
      <point x="823" y="1492"/>
    </contour>
  </outline>
</glyph>
<glyph name="ring" format="2">
  <advance width="1200"/>
  <unicode hex="02DA"/>
  <anchor x="600" y="1050" name="_top"/>
  <outline>
    <contour>
      <point x="601" y="1622" type="curve" smooth="yes"/>
      <point x="484" y="1622"/>
      <point x="395" y="1541"/>
      <point x="395" y="1433" type="curve" smooth="yes"/>
      <point x="395" y="1329"/>
      <point x="484" y="1248"/>
      <point x="601" y="1248" type="curve" smooth="yes"/>
      <point x="717" y="1248"/>
      <point x="806" y="1329"/>
      <point x="806" y="1433" type="curve" smooth="yes"/>
      <point x="806" y="1541"/>
      <point x="717" y="1622"/>
    </contour>
    <contour>
      <point x="601" y="1552" type="curve" smooth="yes"/>
      <point x="672" y="1552"/>
      <point x="714" y="1505"/>
      <point x="714" y="1433" type="curve" smooth="yes"/>
      <point x="714" y="1363"/>
      <point x="672" y="1316"/>
      <point x="601" y="1316" type="curve" smooth="yes"/>
      <point x="532" y="1316"/>
      <point x="487" y="1363"/>
      <point x="487" y="1433" type="curve" smooth="yes"/>
      <point x="487" y="1505"/>
      <point x="532" y="1552"/>
    </contour>
  </outline>
</glyph>
<glyph name="brevecomb" format="2">
  <unicode hex="0306"/>
  <anchor x="600" y="1050" name="_top"/>
  <outline>
    <contour>
      <point x="594" y="1169" type="curve" smooth="yes"/>
      <point x="733" y="1169"/>
      <point x="870" y="1250"/>
      <point x="885" y="1387" type="curve"/>
      <point x="787" y="1410" type="line"/>
      <point x="758" y="1332"/>
      <point x="692" y="1273"/>
      <point x="594" y="1273" type="curve" smooth="yes"/>
      <point x="499" y="1273"/>
      <point x="442" y="1332"/>
      <point x="413" y="1410" type="curve"/>
      <point x="315" y="1387" type="line"/>
      <point x="329" y="1250"/>
      <point x="462" y="1169"/>
    </contour>
  </outline>
</glyph>
<glyph name="reversedlunatesigmasymbol" format="2">
  <advance width="1200"/>
  <unicode hex="037B"/>
  <anchor x="513" y="533" name="center"/>
  <outline>
    <contour>
      <point x="528" y="-20" type="curve" smooth="yes"/>
      <point x="815" y="-20"/>
      <point x="1006" y="172"/>
      <point x="1006" y="515" type="curve" smooth="yes"/>
      <point x="1006" y="853"/>
      <point x="825" y="1069"/>
      <point x="536" y="1069" type="curve" smooth="yes"/>
      <point x="408" y="1069"/>
      <point x="318" y="1043"/>
      <point x="202" y="964" type="curve"/>
      <point x="268" y="882" type="line"/>
      <point x="351" y="934"/>
      <point x="420" y="959"/>
      <point x="545" y="959" type="curve" smooth="yes"/>
      <point x="750" y="959"/>
      <point x="868" y="820"/>
      <point x="868" y="521" type="curve" smooth="yes"/>
      <point x="868" y="227"/>
      <point x="734" y="94"/>
      <point x="525" y="94" type="curve" smooth="yes"/>
      <point x="407" y="94"/>
      <point x="350" y="118"/>
      <point x="260" y="167" type="curve"/>
      <point x="202" y="86" type="line"/>
      <point x="304" y="12"/>
      <point x="397" y="-20"/>
    </contour>
  </outline>
</glyph>
<glyph name="tonos" format="2">
  <advance width="1200"/>
  <unicode hex="0384"/>
  <anchor x="542" y="1050" name="_top"/>
  <outline>
    <contour>
      <point x="568" y="1592" type="line"/>
      <point x="494" y="1214" type="line"/>
      <point x="590" y="1197" type="line"/>
      <point x="708" y="1569" type="line"/>
    </contour>
  </outline>
</glyph>
<glyph name="dieresistonos" format="2">
  <advance width="1200"/>
  <unicode hex="0385"/>
  <anchor x="600" y="1050" name="_top"/>
  <outline>
    <contour>
      <point x="605" y="1803" type="line"/>
      <point x="547" y="1465" type="line"/>
      <point x="648" y="1448" type="line"/>
      <point x="761" y="1770" type="line"/>
    </contour>
    <contour>
      <point x="414" y="1457" type="curve" smooth="yes"/>
      <point x="360" y="1457"/>
      <point x="319" y="1415"/>
      <point x="319" y="1363" type="curve" smooth="yes"/>
      <point x="319" y="1309"/>
      <point x="360" y="1269"/>
      <point x="414" y="1269" type="curve" smooth="yes"/>
      <point x="466" y="1269"/>
      <point x="507" y="1309"/>
      <point x="507" y="1363" type="curve" smooth="yes"/>
      <point x="507" y="1415"/>
      <point x="466" y="1457"/>
    </contour>
    <contour>
      <point x="783" y="1457" type="curve" smooth="yes"/>
      <point x="732" y="1457"/>
      <point x="690" y="1415"/>
      <point x="690" y="1363" type="curve" smooth="yes"/>
      <point x="690" y="1309"/>
      <point x="732" y="1269"/>
      <point x="783" y="1269" type="curve" smooth="yes"/>
      <point x="838" y="1269"/>
      <point x="878" y="1309"/>
      <point x="878" y="1363" type="curve" smooth="yes"/>
      <point x="878" y="1415"/>
      <point x="838" y="1457"/>
    </contour>
  </outline>
</glyph>
<glyph name="Theta" format="2">
  <advance width="1200"/>
  <unicode hex="0398"/>
  <anchor x="600" y="0" name="bottom"/>
  <anchor x="600" y="1374" name="top"/>
  <outline>
    <contour>
      <point x="820" y="637" type="line"/>
      <point x="820" y="770" type="line"/>
      <point x="378" y="770" type="line"/>
      <point x="378" y="637" type="line"/>
    </contour>
    <contour>
      <point x="1093" y="685" type="curve" smooth="yes"/>
      <point x="1093" y="1104"/>
      <point x="927" y="1393"/>
      <point x="600" y="1393" type="curve" smooth="yes"/>
      <point x="273" y="1393"/>
      <point x="107" y="1094"/>
      <point x="107" y="682" type="curve" smooth="yes"/>
      <point x="107" y="264"/>
      <point x="273" y="-20"/>
      <point x="600" y="-20" type="curve" smooth="yes"/>
      <point x="927" y="-20"/>
      <point x="1093" y="274"/>
    </contour>
    <contour>
      <point x="952" y="685" type="curve" smooth="yes"/>
      <point x="952" y="313"/>
      <point x="853" y="98"/>
      <point x="600" y="98" type="curve" smooth="yes"/>
      <point x="353" y="98"/>
      <point x="248" y="311"/>
      <point x="248" y="682" type="curve" smooth="yes"/>
      <point x="248" y="1054"/>
      <point x="345" y="1275"/>
      <point x="600" y="1275" type="curve" smooth="yes"/>
      <point x="855" y="1275"/>
      <point x="952" y="1057"/>
    </contour>
  </outline>
</glyph>
<glyph name="Xi" format="2">
  <advance width="1200"/>
  <unicode hex="039E"/>
  <anchor x="600" y="0" name="bottom"/>
  <anchor x="600" y="1374" name="top"/>
  <outline>
    <contour>
      <point x="1033" y="131" type="line"/>
      <point x="167" y="131" type="line"/>
      <point x="167" y="0" type="line"/>
      <point x="1033" y="0" type="line"/>
    </contour>
    <contour>
      <point x="915" y="765" type="line"/>
      <point x="261" y="765" type="line"/>
      <point x="261" y="629" type="line"/>
      <point x="915" y="629" type="line"/>
    </contour>
    <contour>
      <point x="1007" y="1374" type="line"/>
      <point x="167" y="1374" type="line"/>
      <point x="167" y="1245" type="line"/>
      <point x="986" y="1245" type="line"/>
    </contour>
  </outline>
</glyph>
<glyph name="Phi" format="2">
  <advance width="1200"/>
  <unicode hex="03A6"/>
  <anchor x="600" y="0" name="bottom"/>
  <anchor x="600" y="1374" name="top"/>
  <outline>
    <contour>
      <point x="677" y="1374" type="line"/>
      <point x="523" y="1374" type="line"/>
      <point x="523" y="1216" type="line"/>
      <point x="183" y="1199"/>
      <point x="25" y="1010"/>
      <point x="25" y="691" type="curve" smooth="yes"/>
      <point x="25" y="354"/>
      <point x="209" y="173"/>
      <point x="523" y="163" type="curve"/>
      <point x="523" y="0" type="line"/>
      <point x="677" y="0" type="line"/>
      <point x="677" y="163" type="line"/>
      <point x="996" y="173"/>
      <point x="1175" y="354"/>
      <point x="1175" y="691" type="curve" smooth="yes"/>
      <point x="1175" y="1013"/>
      <point x="1019" y="1199"/>
      <point x="677" y="1216" type="curve"/>
    </contour>
    <contour>
      <point x="520" y="1102" type="curve"/>
      <point x="520" y="276" type="line"/>
      <point x="279" y="291"/>
      <point x="167" y="402"/>
      <point x="167" y="691" type="curve" smooth="yes"/>
      <point x="167" y="1006"/>
      <point x="287" y="1097"/>
    </contour>
    <contour>
      <point x="680" y="1102" type="line"/>
      <point x="911" y="1100"/>
      <point x="1033" y="1009"/>
      <point x="1033" y="691" type="curve" smooth="yes"/>
      <point x="1033" y="404"/>
      <point x="921" y="291"/>
      <point x="680" y="276" type="curve"/>
    </contour>
  </outline>
</glyph>
<glyph name="gamma" format="2">
  <advance width="1200"/>
  <unicode hex="03B3"/>
  <anchor x="600" y="-386" name="bottom"/>
  <anchor x="600" y="1050" name="top"/>
  <outline>
    <contour>
      <point x="970" y="1073" type="line"/>
      <point x="610" y="196" type="line"/>
      <point x="521" y="577"/>
      <point x="375" y="912"/>
      <point x="232" y="1068" type="curve"/>
      <point x="103" y="1023" type="line"/>
      <point x="261" y="889"/>
      <point x="449" y="401"/>
      <point x="531" y="43" type="curve"/>
      <point x="473" y="-105"/>
      <point x="475" y="-298"/>
      <point x="538" y="-420" type="curve"/>
      <point x="640" y="-400" type="line"/>
      <point x="595" y="-220"/>
      <point x="605" y="-100"/>
      <point x="660" y="29" type="curve" smooth="yes"/>
      <point x="1097" y="1045" type="line"/>
    </contour>
  </outline>
</glyph>
<glyph name="epsilon" format="2">
  <advance width="1200"/>
  <unicode hex="03B5"/>
  <anchor x="615" y="0" name="bottom"/>
  <anchor x="633" y="1050" name="top"/>
  <outline>
    <contour>
      <point x="765" y="493" type="line"/>
      <point x="784" y="611" type="line"/>
      <point x="601" y="611" type="line" smooth="yes"/>
      <point x="450" y="611"/>
      <point x="352" y="676"/>
      <point x="352" y="780" type="curve" smooth="yes"/>
      <point x="352" y="903"/>
      <point x="455" y="960"/>
      <point x="629" y="960" type="curve" smooth="yes"/>
      <point x="737" y="960"/>
      <point x="853" y="937"/>
      <point x="949" y="877" type="curve"/>
      <point x="1017" y="963" type="line"/>
      <point x="915" y="1038"/>
      <point x="755" y="1069"/>
      <point x="633" y="1069" type="curve" smooth="yes"/>
      <point x="409" y="1069"/>
      <point x="221" y="977"/>
      <point x="221" y="790" type="curve" smooth="yes"/>
      <point x="221" y="678"/>
      <point x="296" y="592"/>
      <point x="436" y="563" type="curve"/>
      <point x="275" y="541"/>
      <point x="178" y="468"/>
      <point x="178" y="307" type="curve" smooth="yes"/>
      <point x="178" y="97"/>
      <point x="367" y="-20"/>
      <point x="613" y="-20" type="curve" smooth="yes"/>
      <point x="815" y="-20"/>
      <point x="981" y="49"/>
      <point x="1075" y="125" type="curve"/>
      <point x="1000" y="219" type="line"/>
      <point x="901" y="145"/>
      <point x="779" y="93"/>
      <point x="618" y="93" type="curve" smooth="yes"/>
      <point x="432" y="93"/>
      <point x="317" y="179"/>
      <point x="317" y="307" type="curve" smooth="yes"/>
      <point x="317" y="437"/>
      <point x="398" y="493"/>
      <point x="590" y="493" type="curve" smooth="yes"/>
    </contour>
  </outline>
</glyph>
<glyph name="eta" format="2">
  <advance width="1200"/>
  <unicode hex="03B7"/>
  <anchor x="278" y="0" name="bottom"/>
  <anchor x="591" y="1050" name="top"/>
  <outline>
    <contour>
      <point x="681" y="1069" type="curve" smooth="yes"/>
      <point x="558" y="1069"/>
      <point x="411" y="1006"/>
      <point x="323" y="889" type="curve"/>
      <point x="319" y="937"/>
      <point x="294" y="1036"/>
      <point x="274" y="1073" type="curve"/>
      <point x="157" y="1056" type="line"/>
      <point x="183" y="965"/>
      <point x="213" y="844"/>
      <point x="213" y="691" type="curve" smooth="yes"/>
      <point x="213" y="0" type="line"/>
      <point x="337" y="0" type="line"/>
      <point x="337" y="777" type="line"/>
      <point x="392" y="860"/>
      <point x="513" y="966"/>
      <point x="648" y="966" type="curve" smooth="yes"/>
      <point x="836" y="966"/>
      <point x="855" y="867"/>
      <point x="855" y="627" type="curve" smooth="yes"/>
      <point x="855" y="-418" type="line"/>
      <point x="979" y="-401" type="line"/>
      <point x="979" y="760" type="line" smooth="yes"/>
      <point x="979" y="953"/>
      <point x="892" y="1069"/>
    </contour>
  </outline>
</glyph>
<glyph name="xi" format="2">
  <advance width="1200"/>
  <unicode hex="03BE"/>
  <anchor x="600" y="-386" name="bottom"/>
  <anchor x="600" y="1475" name="top"/>
  <outline>
    <contour>
      <point x="712" y="1492" type="curve" smooth="yes"/>
      <point x="480" y="1492"/>
      <point x="287" y="1369"/>
      <point x="287" y="1154" type="curve" smooth="yes"/>
      <point x="287" y="999"/>
      <point x="406" y="932"/>
      <point x="520" y="888" type="curve"/>
      <point x="415" y="871"/>
      <point x="211" y="775"/>
      <point x="211" y="533" type="curve" smooth="yes"/>
      <point x="211" y="226"/>
      <point x="451" y="125"/>
      <point x="739" y="41" type="curve" smooth="yes"/>
      <point x="904" y="-9"/>
      <point x="946" y="-32"/>
      <point x="946" y="-108" type="curve" smooth="yes"/>
      <point x="946" y="-211"/>
      <point x="875" y="-275"/>
      <point x="729" y="-344" type="curve"/>
      <point x="785" y="-443" type="line"/>
      <point x="985" y="-352"/>
      <point x="1085" y="-243"/>
      <point x="1085" y="-98" type="curve" smooth="yes"/>
      <point x="1085" y="49"/>
      <point x="991" y="99"/>
      <point x="739" y="175" type="curve" smooth="yes"/>
      <point x="472" y="252"/>
      <point x="351" y="305"/>
      <point x="351" y="534" type="curve" smooth="yes"/>
      <point x="351" y="680"/>
      <point x="463" y="818"/>
      <point x="640" y="818" type="curve" smooth="yes"/>
      <point x="899" y="818" type="line"/>
      <point x="917" y="953" type="line"/>
      <point x="660" y="953" type="line" smooth="yes"/>
      <point x="512" y="953"/>
      <point x="418" y="1035"/>
      <point x="418" y="1171" type="curve" smooth="yes"/>
      <point x="418" y="1315"/>
      <point x="518" y="1389"/>
      <point x="703" y="1389" type="curve" smooth="yes"/>
      <point x="808" y="1389"/>
      <point x="926" y="1360"/>
      <point x="1025" y="1296" type="curve"/>
      <point x="1091" y="1377" type="line"/>
      <point x="981" y="1457"/>
      <point x="850" y="1492"/>
    </contour>
  </outline>
</glyph>
<glyph name="pi" format="2">
  <advance width="1200"/>
  <unicode hex="03C0"/>
  <anchor x="600" y="0" name="bottom"/>
  <anchor x="600" y="1050" name="top"/>
  <outline>
    <contour>
      <point x="369" y="968" type="line"/>
      <point x="238" y="968" type="line"/>
      <point x="238" y="0" type="line"/>
      <point x="369" y="0" type="line"/>
    </contour>
    <contour>
      <point x="930" y="967" type="line"/>
      <point x="801" y="968" type="line"/>
      <point x="801" y="234" type="line" smooth="yes"/>
      <point x="801" y="88"/>
      <point x="838" y="21"/>
      <point x="981" y="-20" type="curve"/>
      <point x="1032" y="90" type="line"/>
      <point x="956" y="103"/>
      <point x="930" y="137"/>
      <point x="930" y="248" type="curve" smooth="yes"/>
    </contour>
    <contour>
      <point x="1105" y="1050" type="line"/>
      <point x="286" y="1050" type="line" smooth="yes"/>
      <point x="104" y="1050"/>
      <point x="64" y="1043"/>
      <point x="14" y="1018" type="curve"/>
      <point x="48" y="915" type="line"/>
      <point x="113" y="934"/>
      <point x="128" y="936"/>
      <point x="216" y="936" type="curve" smooth="yes"/>
      <point x="1105" y="936" type="line"/>
    </contour>
  </outline>
</glyph>
<glyph name="rho" format="2">
  <advance width="1200"/>
  <unicode hex="03C1"/>
  <anchor x="600" y="-386" name="bottom"/>
  <anchor x="610" y="1050" name="top"/>
  <outline>
    <contour>
      <point x="610" y="1069" type="curve" smooth="yes"/>
      <point x="347" y="1069"/>
      <point x="203" y="888"/>
      <point x="203" y="538" type="curve" smooth="yes"/>
      <point x="203" y="-418" type="line"/>
      <point x="327" y="-401" type="line"/>
      <point x="327" y="104" type="line"/>
      <point x="400" y="22"/>
      <point x="496" y="-20"/>
      <point x="617" y="-20" type="curve" smooth="yes"/>
      <point x="900" y="-20"/>
      <point x="1029" y="237"/>
      <point x="1029" y="525" type="curve" smooth="yes"/>
      <point x="1029" y="869"/>
      <point x="910" y="1069"/>
    </contour>
    <contour>
      <point x="606" y="965" type="curve" smooth="yes"/>
      <point x="801" y="965"/>
      <point x="889" y="810"/>
      <point x="889" y="527" type="curve" smooth="yes"/>
      <point x="889" y="252"/>
      <point x="787" y="93"/>
      <point x="596" y="93" type="curve" smooth="yes"/>
      <point x="485" y="93"/>
      <point x="386" y="146"/>
      <point x="327" y="236" type="curve"/>
      <point x="327" y="519" type="line" smooth="yes"/>
      <point x="327" y="795"/>
      <point x="398" y="965"/>
    </contour>
  </outline>
</glyph>
<glyph name="chi" format="2">
  <advance width="1200"/>
  <unicode hex="03C7"/>
  <anchor x="600" y="-386" name="bottom"/>
  <anchor x="600" y="1050" name="top"/>
  <outline>
    <contour>
      <point x="254" y="1067" type="curve"/>
      <point x="130" y="1020" type="line"/>
      <point x="270" y="870"/>
      <point x="339" y="792"/>
      <point x="538" y="371" type="curve"/>
      <point x="619" y="276" type="line"/>
      <point x="952" y="-405" type="line"/>
      <point x="1073" y="-386" type="line"/>
      <point x="700" y="383" type="line"/>
      <point x="618" y="458" type="line"/>
      <point x="476" y="799"/>
      <point x="381" y="944"/>
    </contour>
    <contour>
      <point x="912" y="1066" type="line"/>
      <point x="618" y="458" type="line"/>
      <point x="538" y="371" type="line"/>
      <point x="153" y="-386" type="line"/>
      <point x="274" y="-399" type="line"/>
      <point x="619" y="276" type="line"/>
      <point x="700" y="383" type="line"/>
      <point x="1041" y="1050" type="line"/>
    </contour>
  </outline>
</glyph>
<glyph name="kaiSymbol" format="2">
  <advance width="1200"/>
  <unicode hex="03D7"/>
  <anchor x="600" y="-386" name="bottom"/>
  <anchor x="600" y="1050" name="top"/>
  <outline>
    <contour>
      <point x="802" y="-413" type="curve" smooth="yes"/>
      <point x="958" y="-413"/>
      <point x="1066" y="-316"/>
      <point x="1066" y="-133" type="curve" smooth="yes"/>
      <point x="1066" y="79" type="line"/>
      <point x="924" y="102" type="line"/>
      <point x="924" y="-143" type="line" smooth="yes"/>
      <point x="924" y="-259"/>
      <point x="874" y="-303"/>
      <point x="796" y="-303" type="curve" smooth="yes"/>
      <point x="733" y="-303"/>
      <point x="700" y="-284"/>
      <point x="655" y="-257" type="curve"/>
      <point x="599" y="-341" type="line"/>
      <point x="643" y="-375"/>
      <point x="706" y="-413"/>
    </contour>
    <contour>
      <point x="433" y="-12" type="line"/>
      <point x="856" y="904" type="line"/>
      <point x="971" y="1006" type="line"/>
      <point x="770" y="1061" type="line"/>
      <point x="347" y="145" type="line"/>
      <point x="230" y="44" type="line"/>
    </contour>
    <contour>
      <point x="1017" y="-8" type="curve"/>
      <point x="1066" y="78" type="line"/>
      <point x="999" y="107"/>
      <point x="971" y="142"/>
      <point x="971" y="248" type="curve" smooth="yes"/>
      <point x="971" y="1006" type="line"/>
      <point x="856" y="904" type="line"/>
      <point x="862" y="861"/>
      <point x="830" y="409"/>
      <point x="830" y="293" type="curve" smooth="yes"/>
      <point x="830" y="115"/>
      <point x="868" y="36"/>
    </contour>
    <contour>
      <point x="184" y="1069" type="curve"/>
      <point x="135" y="972" type="line"/>
      <point x="202" y="943"/>
      <point x="230" y="910"/>
      <point x="230" y="802" type="curve" smooth="yes"/>
      <point x="230" y="44" type="line"/>
      <point x="347" y="145" type="line"/>
      <point x="341" y="189"/>
      <point x="371" y="641"/>
      <point x="371" y="756" type="curve" smooth="yes"/>
      <point x="371" y="935"/>
      <point x="333" y="1025"/>
    </contour>
  </outline>
</glyph>
<glyph name="koppaArchaic" format="2">
  <advance width="1200"/>
  <unicode hex="03D9"/>
  <anchor x="600" y="-386" name="bottom"/>
  <anchor x="600" y="1050" name="top"/>
  <outline>
    <contour>
      <point x="664" y="-4" type="line"/>
      <point x="536" y="-4" type="line"/>
      <point x="536" y="-418" type="line"/>
      <point x="664" y="-401" type="line"/>
    </contour>
    <component base="o"/>
  </outline>
</glyph>
<glyph name="san" format="2">
  <advance width="1200"/>
  <unicode hex="03FB"/>
  <anchor x="600" y="-386" name="bottom"/>
  <anchor x="600" y="1050" name="top"/>
  <outline>
    <contour>
      <point x="51" y="-418" type="line"/>
      <point x="180" y="-395" type="line"/>
      <point x="260" y="600" type="line" smooth="yes"/>
      <point x="267" y="694"/>
      <point x="273" y="793"/>
      <point x="274" y="906" type="curve"/>
      <point x="518" y="108" type="line"/>
      <point x="651" y="108" type="line"/>
      <point x="906" y="912" type="line"/>
      <point x="911" y="755"/>
      <point x="918" y="670"/>
      <point x="926" y="593" type="curve" smooth="yes"/>
      <point x="976" y="0" type="line"/>
      <point x="1108" y="0" type="line"/>
      <point x="1024" y="1050" type="line"/>
      <point x="830" y="1050" type="line"/>
      <point x="584" y="248" type="line"/>
      <point x="361" y="1050" type="line"/>
      <point x="174" y="1050" type="line"/>
    </contour>
  </outline>
</glyph>
<glyph name="Nje-cy" format="2">
  <advance width="1200"/>
  <unicode hex="040A"/>
  <anchor x="600" y="0" name="bottom"/>
  <anchor x="600" y="1374" name="top"/>
  <outline>
    <contour>
      <point x="700" y="1374" type="line"/>
      <point x="555" y="1374" type="line"/>
      <point x="555" y="815" type="line"/>
      <point x="235" y="815" type="line"/>
      <point x="235" y="1374" type="line"/>
      <point x="91" y="1374" type="line"/>
      <point x="91" y="0" type="line"/>
      <point x="235" y="0" type="line"/>
      <point x="235" y="714" type="line"/>
      <point x="555" y="714" type="line"/>
      <point x="555" y="0" type="line"/>
      <point x="729" y="0" type="line" smooth="yes"/>
      <point x="1008" y="0"/>
      <point x="1200" y="100"/>
      <point x="1200" y="417" type="curve" smooth="yes"/>
      <point x="1200" y="695"/>
      <point x="1042" y="817"/>
      <point x="700" y="815" type="curve"/>
    </contour>
    <contour>
      <point x="738" y="711" type="line" smooth="yes"/>
      <point x="936" y="712"/>
      <point x="1044" y="639"/>
      <point x="1044" y="415" type="curve" smooth="yes"/>
      <point x="1044" y="151"/>
      <point x="926" y="108"/>
      <point x="738" y="110" type="curve" smooth="yes"/>
      <point x="700" y="110" type="line"/>
      <point x="700" y="711" type="line"/>
    </contour>
  </outline>
</glyph>
<glyph name="Zhe-cy" format="2">
  <advance width="1200"/>
  <unicode hex="0416"/>
  <anchor x="600" y="0" name="bottom"/>
  <anchor x="1100" y="0" name="bottomright"/>
  <anchor x="600" y="1374" name="top"/>
  <outline>
    <contour>
      <point x="529" y="657" type="line"/>
      <point x="529" y="0" type="line"/>
      <point x="671" y="0" type="line"/>
      <point x="671" y="657" type="line"/>
      <point x="812" y="657" type="line"/>
      <point x="1031" y="0" type="line"/>
      <point x="1170" y="0" type="line"/>
      <point x="916" y="721" type="line"/>
      <point x="1139" y="1374" type="line"/>
      <point x="1005" y="1374" type="line"/>
      <point x="813" y="792" type="line"/>
      <point x="671" y="792" type="line"/>
      <point x="671" y="1374" type="line"/>
      <point x="529" y="1374" type="line"/>
      <point x="529" y="792" type="line"/>
      <point x="387" y="792" type="line"/>
      <point x="198" y="1374" type="line"/>
      <point x="61" y="1374" type="line"/>
      <point x="284" y="721" type="line"/>
      <point x="30" y="0" type="line"/>
      <point x="165" y="0" type="line"/>
      <point x="387" y="657" type="line"/>
    </contour>
  </outline>
</glyph>
<glyph name="Ef-cy" format="2">
  <advance width="1200"/>
  <unicode hex="0424"/>
  <anchor x="600" y="0" name="bottom"/>
  <anchor x="600" y="1374" name="top"/>
  <outline>
    <contour>
      <point x="677" y="1428" type="line"/>
      <point x="523" y="1428" type="line"/>
      <point x="523" y="1321" type="line"/>
      <point x="189" y="1296"/>
      <point x="31" y="1087"/>
      <point x="31" y="691" type="curve" smooth="yes"/>
      <point x="31" y="275"/>
      <point x="211" y="70"/>
      <point x="523" y="59" type="curve"/>
      <point x="523" y="-52" type="line"/>
      <point x="677" y="-52" type="line"/>
      <point x="677" y="59" type="line"/>
      <point x="987" y="73"/>
      <point x="1169" y="277"/>
      <point x="1169" y="691" type="curve" smooth="yes"/>
      <point x="1169" y="1087"/>
      <point x="1012" y="1296"/>
      <point x="677" y="1321" type="curve"/>
    </contour>
    <contour>
      <point x="520" y="1206" type="curve"/>
      <point x="520" y="172" type="line"/>
      <point x="277" y="190"/>
      <point x="168" y="341"/>
      <point x="168" y="691" type="curve" smooth="yes"/>
      <point x="168" y="1066"/>
      <point x="285" y="1202"/>
    </contour>
    <contour>
      <point x="680" y="1206" type="line"/>
      <point x="914" y="1202"/>
      <point x="1032" y="1066"/>
      <point x="1032" y="691" type="curve" smooth="yes"/>
      <point x="1032" y="341"/>
      <point x="923" y="190"/>
      <point x="680" y="172" type="curve"/>
    </contour>
  </outline>
</glyph>
<glyph name="Che-cy" format="2">
  <advance width="1200"/>
  <unicode hex="0427"/>
  <anchor x="600" y="0" name="bottom"/>
  <anchor x="867" y="0" name="bottomleft"/>
  <anchor x="1034" y="0" name="bottomright"/>
  <anchor x="581" y="1374" name="top"/>
  <outline>
    <contour>
      <point x="245" y="1374" type="line"/>
      <point x="117" y="1374" type="line"/>
      <point x="117" y="839" type="line" smooth="yes"/>
      <point x="117" y="611"/>
      <point x="277" y="452"/>
      <point x="509" y="452" type="curve" smooth="yes"/>
      <point x="680" y="452"/>
      <point x="776" y="499"/>
      <point x="931" y="619" type="curve"/>
      <point x="905" y="731" type="line"/>
      <point x="829" y="647"/>
      <point x="712" y="577"/>
      <point x="537" y="577" type="curve" smooth="yes"/>
      <point x="355" y="577"/>
      <point x="245" y="667"/>
      <point x="245" y="855" type="curve" smooth="yes"/>
    </contour>
    <contour>
      <point x="1014" y="1374" type="line"/>
      <point x="887" y="1374" type="line"/>
      <point x="887" y="0" type="line"/>
      <point x="1014" y="0" type="line"/>
    </contour>
  </outline>
</glyph>
<glyph name="Hardsign-cy" format="2">
  <advance width="1200"/>
  <unicode hex="042A"/>
  <outline>
    <contour>
      <point x="397" y="1374" type="line"/>
      <point x="3" y="1374" type="line"/>
      <point x="3" y="1248" type="line"/>
      <point x="261" y="1248" type="line"/>
      <point x="261" y="0" type="line"/>
      <point x="635" y="0" type="line" smooth="yes"/>
      <point x="941" y="0"/>
      <point x="1160" y="114"/>
      <point x="1160" y="435" type="curve" smooth="yes"/>
      <point x="1160" y="729"/>
      <point x="962" y="851"/>
      <point x="640" y="851" type="curve" smooth="yes"/>
      <point x="397" y="851" type="line"/>
    </contour>
    <contour>
      <point x="680" y="739" type="line" smooth="yes"/>
      <point x="868" y="739"/>
      <point x="1023" y="664"/>
      <point x="1023" y="433" type="curve" smooth="yes"/>
      <point x="1023" y="172"/>
      <point x="876" y="115"/>
      <point x="691" y="115" type="curve" smooth="yes"/>
      <point x="397" y="115" type="line"/>
      <point x="397" y="739" type="line"/>
    </contour>
  </outline>
</glyph>
<glyph name="Ereversed-cy" format="2">
  <advance width="1200"/>
  <unicode hex="042D"/>
  <anchor x="600" y="0" name="bottom"/>
  <anchor x="585" y="1378" name="top"/>
  <outline>
    <contour>
      <point x="543" y="1393" type="curve" smooth="yes"/>
      <point x="351" y="1393"/>
      <point x="213" y="1311"/>
      <point x="117" y="1225" type="curve"/>
      <point x="196" y="1143" type="line"/>
      <point x="282" y="1214"/>
      <point x="379" y="1280"/>
      <point x="541" y="1280" type="curve" smooth="yes"/>
      <point x="772" y="1280"/>
      <point x="910" y="1141"/>
      <point x="931" y="768" type="curve"/>
      <point x="297" y="768" type="line"/>
      <point x="297" y="647" type="line"/>
      <point x="931" y="647" type="line"/>
      <point x="912" y="271"/>
      <point x="779" y="95"/>
      <point x="519" y="95" type="curve" smooth="yes"/>
      <point x="391" y="95"/>
      <point x="287" y="141"/>
      <point x="192" y="233" type="curve"/>
      <point x="101" y="156" type="line"/>
      <point x="201" y="53"/>
      <point x="353" y="-20"/>
      <point x="533" y="-20" type="curve" smooth="yes"/>
      <point x="861" y="-20"/>
      <point x="1064" y="231"/>
      <point x="1064" y="708" type="curve" smooth="yes"/>
      <point x="1064" y="1171"/>
      <point x="861" y="1393"/>
    </contour>
  </outline>
</glyph>
<glyph name="Ia-cy" format="2">
  <advance width="1200"/>
  <unicode hex="042F"/>
  <anchor x="600" y="0" name="bottom"/>
  <anchor x="600" y="1374" name="top"/>
  <outline>
    <contour>
      <point x="1014" y="1374" type="line"/>
      <point x="679" y="1374" type="line" smooth="yes"/>
      <point x="350" y="1374"/>
      <point x="173" y="1223"/>
      <point x="173" y="975" type="curve" smooth="yes"/>
      <point x="173" y="816"/>
      <point x="252" y="675"/>
      <point x="415" y="602" type="curve"/>
      <point x="86" y="0" type="line"/>
      <point x="233" y="0" type="line"/>
      <point x="539" y="569" type="line"/>
      <point x="887" y="569" type="line"/>
      <point x="887" y="0" type="line"/>
      <point x="1014" y="0" type="line"/>
    </contour>
    <contour>
      <point x="887" y="1264" type="line"/>
      <point x="887" y="686" type="line"/>
      <point x="601" y="686" type="line" smooth="yes"/>
      <point x="412" y="686"/>
      <point x="313" y="783"/>
      <point x="313" y="978" type="curve" smooth="yes"/>
      <point x="313" y="1178"/>
      <point x="422" y="1264"/>
      <point x="651" y="1264" type="curve" smooth="yes"/>
    </contour>
  </outline>
</glyph>
<glyph name="ve-cy" format="2">
  <advance width="1200"/>
  <unicode hex="0432"/>
  <outline>
    <contour>
      <point x="576" y="1069" type="curve" smooth="yes"/>
      <point x="457" y="1069"/>
      <point x="340" y="1054"/>
      <point x="242" y="1035" type="curve"/>
      <point x="242" y="0" type="line"/>
      <point x="619" y="0" type="line" smooth="yes"/>
      <point x="851" y="0"/>
      <point x="1049" y="91"/>
      <point x="1049" y="308" type="curve" smooth="yes"/>
      <point x="1049" y="472"/>
      <point x="964" y="551"/>
      <point x="782" y="567" type="curve"/>
      <point x="953" y="609"/>
      <point x="992" y="692"/>
      <point x="992" y="797" type="curve" smooth="yes"/>
      <point x="992" y="970"/>
      <point x="835" y="1069"/>
    </contour>
    <contour>
      <point x="580" y="955" type="curve" smooth="yes"/>
      <point x="767" y="955"/>
      <point x="857" y="913"/>
      <point x="857" y="790" type="curve" smooth="yes"/>
      <point x="857" y="653"/>
      <point x="757" y="616"/>
      <point x="608" y="616" type="curve" smooth="yes"/>
      <point x="334" y="616" type="line"/>
      <point x="334" y="494" type="line"/>
      <point x="617" y="494" type="line" smooth="yes"/>
      <point x="749" y="494"/>
      <point x="911" y="473"/>
      <point x="911" y="300" type="curve" smooth="yes"/>
      <point x="911" y="170"/>
      <point x="812" y="115"/>
      <point x="617" y="115" type="curve" smooth="yes"/>
      <point x="366" y="115" type="line"/>
      <point x="366" y="941" type="line"/>
      <point x="439" y="950"/>
      <point x="491" y="955"/>
    </contour>
  </outline>
</glyph>
<glyph name="ge-cy" format="2">
  <advance width="1200"/>
  <unicode hex="0433"/>
  <anchor x="399" y="0" name="bottom"/>
  <anchor x="481" y="0" name="bottomright"/>
  <anchor x="682" y="1050" name="top"/>
  <outline>
    <contour>
      <point x="461" y="0" type="line"/>
      <point x="461" y="940" type="line"/>
      <point x="1025" y="940" type="line"/>
      <point x="1041" y="1050" type="line"/>
      <point x="337" y="1050" type="line"/>
      <point x="337" y="0" type="line"/>
    </contour>
  </outline>
</glyph>
<glyph name="zhe-cy" format="2">
  <advance width="1200"/>
  <unicode hex="0436"/>
  <anchor x="600" y="0" name="bottom"/>
  <anchor x="1062" y="0" name="bottomright"/>
  <anchor x="600" y="1050" name="top"/>
  <outline>
    <contour>
      <point x="535" y="0" type="line"/>
      <point x="665" y="0" type="line"/>
      <point x="665" y="501" type="line"/>
      <point x="790" y="501" type="line"/>
      <point x="1006" y="0" type="line"/>
      <point x="1145" y="0" type="line"/>
      <point x="901" y="564" type="line"/>
      <point x="1122" y="1050" type="line"/>
      <point x="988" y="1050" type="line"/>
      <point x="794" y="620" type="line"/>
      <point x="665" y="620" type="line"/>
      <point x="665" y="1050" type="line"/>
      <point x="535" y="1050" type="line"/>
      <point x="535" y="620" type="line"/>
      <point x="406" y="620" type="line"/>
      <point x="217" y="1050" type="line"/>
      <point x="78" y="1050" type="line"/>
      <point x="298" y="564" type="line"/>
      <point x="54" y="0" type="line"/>
      <point x="185" y="0" type="line"/>
      <point x="405" y="501" type="line"/>
      <point x="535" y="501" type="line"/>
    </contour>
  </outline>
</glyph>
<glyph name="te-cy" format="2">
  <advance width="1200"/>
  <unicode hex="0442"/>
  <anchor x="600" y="0" name="bottom"/>
  <anchor x="682" y="0" name="bottomright"/>
  <anchor x="600" y="1050" name="top"/>
  <outline>
    <contour>
      <point x="1067" y="1050" type="line"/>
      <point x="145" y="1050" type="line"/>
      <point x="145" y="938" type="line"/>
      <point x="538" y="938" type="line"/>
      <point x="538" y="0" type="line"/>
      <point x="662" y="0" type="line"/>
      <point x="662" y="938" type="line"/>
      <point x="1053" y="938" type="line"/>
    </contour>
  </outline>
</glyph>
<glyph name="hardsign-cy" format="2">
  <advance width="1200"/>
  <unicode hex="044A"/>
  <outline>
    <contour>
      <point x="465" y="1050" type="line"/>
      <point x="78" y="1050" type="line"/>
      <point x="78" y="949" type="line"/>
      <point x="341" y="949" type="line"/>
      <point x="341" y="0" type="line"/>
      <point x="592" y="0" type="line" smooth="yes"/>
      <point x="865" y="0"/>
      <point x="1075" y="86"/>
      <point x="1075" y="365" type="curve" smooth="yes"/>
      <point x="1075" y="622"/>
      <point x="885" y="716"/>
      <point x="602" y="716" type="curve" smooth="yes"/>
      <point x="465" y="716" type="line"/>
    </contour>
    <contour>
      <point x="627" y="607" type="line" smooth="yes"/>
      <point x="818" y="607"/>
      <point x="938" y="544"/>
      <point x="938" y="363" type="curve" smooth="yes"/>
      <point x="938" y="153"/>
      <point x="797" y="110"/>
      <point x="623" y="110" type="curve" smooth="yes"/>
      <point x="465" y="110" type="line"/>
      <point x="465" y="607" type="line"/>
    </contour>
  </outline>
</glyph>
<glyph name="softsign-cy" format="2">
  <advance width="1200"/>
  <unicode hex="044C"/>
  <anchor x="600" y="0" name="bottom"/>
  <anchor x="600" y="1050" name="top"/>
  <outline>
    <contour>
      <point x="399" y="1050" type="line"/>
      <point x="275" y="1050" type="line"/>
      <point x="275" y="0" type="line"/>
      <point x="680" y="0" type="line" smooth="yes"/>
      <point x="861" y="0"/>
      <point x="1053" y="119"/>
      <point x="1053" y="359" type="curve" smooth="yes"/>
      <point x="1053" y="565"/>
      <point x="958" y="714"/>
      <point x="634" y="714" type="curve" smooth="yes"/>
      <point x="399" y="714" type="line"/>
    </contour>
    <contour>
      <point x="629" y="605" type="line" smooth="yes"/>
      <point x="854" y="605"/>
      <point x="917" y="519"/>
      <point x="917" y="356" type="curve" smooth="yes"/>
      <point x="917" y="168"/>
      <point x="805" y="110"/>
      <point x="653" y="110" type="curve" smooth="yes"/>
      <point x="399" y="110" type="line"/>
      <point x="399" y="605" type="line"/>
    </contour>
  </outline>
</glyph>
<glyph name="Omega-cy" format="2">
  <advance width="1200"/>
  <unicode hex="0460"/>
  <outline>
    <contour>
      <point x="1025" y="1374" type="curve"/>
      <point x="885" y="1374" type="line"/>
      <point x="972" y="1151"/>
      <point x="1034" y="917"/>
      <point x="1034" y="595" type="curve" smooth="yes"/>
      <point x="1034" y="160"/>
      <point x="944" y="94"/>
      <point x="840" y="94" type="curve" smooth="yes"/>
      <point x="754" y="94"/>
      <point x="676" y="162"/>
      <point x="676" y="346" type="curve" smooth="yes"/>
      <point x="676" y="795" type="line"/>
      <point x="528" y="795" type="line"/>
      <point x="528" y="343" type="line" smooth="yes"/>
      <point x="528" y="154"/>
      <point x="458" y="94"/>
      <point x="381" y="94" type="curve" smooth="yes"/>
      <point x="257" y="94"/>
      <point x="169" y="218"/>
      <point x="169" y="600" type="curve" smooth="yes"/>
      <point x="169" y="916"/>
      <point x="221" y="1148"/>
      <point x="318" y="1374" type="curve"/>
      <point x="179" y="1374" type="line"/>
      <point x="136" y="1253"/>
      <point x="36" y="988"/>
      <point x="36" y="594" type="curve" smooth="yes"/>
      <point x="36" y="120"/>
      <point x="209" y="-17"/>
      <point x="353" y="-17" type="curve" smooth="yes"/>
      <point x="491" y="-17"/>
      <point x="560" y="58"/>
      <point x="604" y="196" type="curve"/>
      <point x="647" y="57"/>
      <point x="730" y="-17"/>
      <point x="853" y="-17" type="curve" smooth="yes"/>
      <point x="1044" y="-17"/>
      <point x="1166" y="134"/>
      <point x="1166" y="594" type="curve" smooth="yes"/>
      <point x="1166" y="988"/>
      <point x="1069" y="1253"/>
    </contour>
  </outline>
</glyph>
<glyph name="Yusbig-cy" format="2">
  <advance width="1200"/>
  <unicode hex="046A"/>
  <anchor x="600" y="0" name="bottom"/>
  <anchor x="600" y="1374" name="top"/>
  <outline>
    <contour>
      <point x="96" y="0" type="line"/>
      <point x="229" y="0" type="line"/>
      <point x="399" y="623" type="line"/>
      <point x="529" y="623" type="line"/>
      <point x="529" y="0" type="line"/>
      <point x="674" y="0" type="line"/>
      <point x="674" y="623" type="line"/>
      <point x="806" y="623" type="line"/>
      <point x="973" y="0" type="line"/>
      <point x="1104" y="0" type="line"/>
      <point x="903" y="743" type="line"/>
      <point x="320" y="743" type="line"/>
    </contour>
    <contour>
      <point x="514" y="646" type="line"/>
      <point x="686" y="646" type="line"/>
      <point x="1017" y="1278" type="line"/>
      <point x="1017" y="1374" type="line"/>
      <point x="923" y="1374" type="line"/>
      <point x="610" y="743" type="line"/>
      <point x="305" y="1374" type="line"/>
      <point x="201" y="1374" type="line"/>
      <point x="201" y="1278" type="line"/>
    </contour>
    <contour>
      <point x="251" y="1266" type="line"/>
      <point x="974" y="1266" type="line"/>
      <point x="974" y="1374" type="line"/>
      <point x="230" y="1374" type="line"/>
    </contour>
  </outline>
</glyph>
<glyph name="Uk-cy" format="2">
  <advance width="1200"/>
  <unicode hex="0478"/>
  <outline>
    <contour>
      <point x="336" y="-20" type="curve" smooth="yes"/>
      <point x="564" y="-20"/>
      <point x="643" y="231"/>
      <point x="643" y="685" type="curve" smooth="yes"/>
      <point x="643" y="1132"/>
      <point x="564" y="1393"/>
      <point x="336" y="1393" type="curve" smooth="yes"/>
      <point x="102" y="1393"/>
      <point x="29" y="1122"/>
      <point x="29" y="682" type="curve" smooth="yes"/>
      <point x="29" y="235"/>
      <point x="102" y="-20"/>
    </contour>
    <contour>
      <point x="336" y="93" type="curve" smooth="yes"/>
      <point x="211" y="93"/>
      <point x="173" y="274"/>
      <point x="173" y="682" type="curve" smooth="yes"/>
      <point x="173" y="1091"/>
      <point x="203" y="1281"/>
      <point x="336" y="1281" type="curve" smooth="yes"/>
      <point x="469" y="1281"/>
      <point x="498" y="1094"/>
      <point x="498" y="685" type="curve" smooth="yes"/>
      <point x="498" y="275"/>
      <point x="468" y="93"/>
    </contour>
    <contour>
      <point x="701" y="-417" type="line"/>
      <point x="881" y="-362"/>
      <point x="982" y="-233"/>
      <point x="1018" y="-9" type="curve" smooth="yes"/>
      <point x="1187" y="1050" type="line"/>
      <point x="1045" y="1050" type="line"/>
      <point x="926" y="106" type="line"/>
      <point x="791" y="1050" type="line"/>
      <point x="655" y="1050" type="line"/>
      <point x="829" y="0" type="line"/>
      <point x="892" y="0" type="line"/>
      <point x="864" y="-182"/>
      <point x="796" y="-265"/>
      <point x="683" y="-294" type="curve"/>
    </contour>
  </outline>
</glyph>
<glyph name="uk-cy" format="2">
  <advance width="1200"/>
  <unicode hex="0479"/>
  <outline>
    <contour>
      <point x="487" y="-417" type="line"/>
      <point x="799" y="-394"/>
      <point x="961" y="-244"/>
      <point x="1011" y="17" type="curve" smooth="yes"/>
      <point x="1207" y="1050" type="line"/>
      <point x="1042" y="1050" type="line"/>
      <point x="900" y="106" type="line"/>
      <point x="750" y="1050" type="line"/>
      <point x="579" y="1050" type="line"/>
      <point x="783" y="0" type="line"/>
      <point x="851" y="0" type="line"/>
      <point x="803" y="-190"/>
      <point x="697" y="-260"/>
      <point x="470" y="-297" type="curve"/>
    </contour>
    <contour>
      <point x="303" y="-20" type="curve" smooth="yes"/>
      <point x="517" y="-20"/>
      <point x="603" y="213"/>
      <point x="603" y="525" type="curve" smooth="yes"/>
      <point x="603" y="857"/>
      <point x="522" y="1069"/>
      <point x="306" y="1069" type="curve" smooth="yes"/>
      <point x="79" y="1069"/>
      <point x="2" y="844"/>
      <point x="2" y="523" type="curve" smooth="yes"/>
      <point x="2" y="200"/>
      <point x="77" y="-20"/>
    </contour>
    <contour>
      <point x="303" y="107" type="curve" smooth="yes"/>
      <point x="189" y="107"/>
      <point x="163" y="244"/>
      <point x="163" y="523" type="curve" smooth="yes"/>
      <point x="163" y="810"/>
      <point x="192" y="946"/>
      <point x="306" y="946" type="curve" smooth="yes"/>
      <point x="417" y="946"/>
      <point x="442" y="809"/>
      <point x="442" y="525" type="curve" smooth="yes"/>
      <point x="442" y="244"/>
      <point x="417" y="107"/>
    </contour>
  </outline>
</glyph>
<glyph name="gheupturn-cy" format="2">
  <advance width="1200"/>
  <unicode hex="0491"/>
  <anchor x="399" y="0" name="bottom"/>
  <anchor x="481" y="0" name="bottomright"/>
  <anchor x="682" y="1050" name="top"/>
  <outline>
    <contour>
      <point x="903" y="1037" type="line"/>
      <point x="1041" y="1050" type="line"/>
      <point x="1041" y="1305" type="line"/>
      <point x="903" y="1305" type="line"/>
    </contour>
    <component base="ge-cy"/>
  </outline>
</glyph>
<glyph name="Ghemiddlehook-cy" format="2">
  <advance width="1200"/>
  <unicode hex="0494"/>
  <anchor x="600" y="-386" name="bottom"/>
  <anchor x="600" y="1374" name="top"/>
  <anchor x="1109" y="0" name="bottomright"/>
  <outline>
    <contour>
      <point x="929" y="1374" type="line"/>
      <point x="240" y="1374" type="line"/>
      <point x="322" y="1261" type="line"/>
      <point x="912" y="1261" type="line"/>
    </contour>
    <component base="Shha-cy" xOffset="9"/>
    <component base="hookHELPER.case" xOffset="587"/>
  </outline>
</glyph>
<glyph name="kabashkir-cy" format="2">
  <advance width="1200"/>
  <unicode hex="04A1"/>
  <outline>
    <contour>
      <point x="283" y="0" type="line"/>
      <point x="407" y="0" type="line"/>
      <point x="407" y="504" type="line"/>
      <point x="614" y="504" type="line"/>
      <point x="1003" y="0" type="line"/>
      <point x="1168" y="0" type="line"/>
      <point x="724" y="564" type="line"/>
      <point x="1106" y="1050" type="line"/>
      <point x="951" y="1050" type="line"/>
      <point x="617" y="618" type="line"/>
      <point x="407" y="618" type="line"/>
      <point x="407" y="1050" type="line"/>
      <point x="283" y="1030" type="line"/>
    </contour>
    <contour>
      <point x="283" y="949" type="line"/>
      <point x="407" y="1050" type="line"/>
      <point x="20" y="1050" type="line"/>
      <point x="20" y="949" type="line"/>
    </contour>
  </outline>
</glyph>
<glyph name="haabkhasian-cy" format="2">
  <advance width="1200"/>
  <unicode hex="04A9"/>
  <anchor x="600" y="-386" name="bottom"/>
  <anchor x="600" y="1050" name="top"/>
  <outline>
    <contour>
      <point x="900" y="-220" type="curve"/>
      <point x="1008" y="-144" type="line"/>
      <point x="744" y="129"/>
      <point x="654" y="268"/>
      <point x="654" y="426" type="curve" smooth="yes"/>
      <point x="654" y="539"/>
      <point x="704" y="617"/>
      <point x="800" y="617" type="curve" smooth="yes"/>
      <point x="890" y="617"/>
      <point x="939" y="544"/>
      <point x="939" y="436" type="curve" smooth="yes"/>
      <point x="939" y="243"/>
      <point x="834" y="85"/>
      <point x="570" y="85" type="curve"/>
      <point x="566" y="-20" type="line"/>
      <point x="880" y="-20"/>
      <point x="1086" y="198"/>
      <point x="1086" y="442" type="curve" smooth="yes"/>
      <point x="1086" y="613"/>
      <point x="977" y="737"/>
      <point x="799" y="737" type="curve" smooth="yes"/>
      <point x="606" y="737"/>
      <point x="502" y="586"/>
      <point x="502" y="428" type="curve" smooth="yes"/>
      <point x="502" y="249"/>
      <point x="609" y="80"/>
    </contour>
    <contour>
      <point x="722" y="918" type="curve"/>
      <point x="780" y="1012" type="line"/>
      <point x="707" y="1054"/>
      <point x="632" y="1069"/>
      <point x="542" y="1069" type="curve" smooth="yes"/>
      <point x="279" y="1069"/>
      <point x="123" y="853"/>
      <point x="123" y="515" type="curve" smooth="yes"/>
      <point x="123" y="172"/>
      <point x="294" y="-20"/>
      <point x="566" y="-20" type="curve"/>
      <point x="570" y="85" type="line"/>
      <point x="368" y="85"/>
      <point x="262" y="227"/>
      <point x="262" y="521" type="curve" smooth="yes"/>
      <point x="262" y="811"/>
      <point x="367" y="959"/>
      <point x="547" y="959" type="curve" smooth="yes"/>
      <point x="616" y="959"/>
      <point x="670" y="945"/>
    </contour>
  </outline>
</glyph>
<glyph name="Ustraitstroke-cy" format="2">
  <advance width="1200"/>
  <unicode hex="04B0"/>
  <anchor x="600" y="0" name="bottom"/>
  <anchor x="609" y="1374" name="top"/>
  <anchor x="66" y="1374" name="topleft"/>
  <outline>
    <contour>
      <point x="929" y="652" type="line"/>
      <point x="467" y="652" type="line"/>
      <point x="271" y="652" type="line"/>
      <point x="271" y="533" type="line"/>
      <point x="665" y="533" type="line"/>
      <point x="929" y="533" type="line"/>
    </contour>
    <component base="Y"/>
  </outline>
</glyph>
<glyph name="tetse-cy" format="2">
  <advance width="1200"/>
  <unicode hex="04B5"/>
  <anchor x="600" y="-386" name="bottom"/>
  <anchor x="600" y="1050" name="top"/>
  <outline>
    <contour>
      <point x="685" y="1050" type="line"/>
      <point x="0" y="1050" type="line"/>
      <point x="0" y="940" type="line"/>
      <point x="275" y="940" type="line"/>
      <point x="407" y="940" type="line"/>
      <point x="676" y="940" type="line"/>
    </contour>
    <contour>
      <point x="849" y="1050" type="line"/>
      <point x="849" y="112" type="line"/>
      <point x="407" y="112" type="line"/>
      <point x="407" y="1050" type="line"/>
      <point x="274" y="1050" type="line"/>
      <point x="274" y="0" type="line"/>
      <point x="982" y="0" type="line"/>
      <point x="982" y="1050" type="line"/>
    </contour>
    <contour>
      <point x="1102" y="109" type="line"/>
      <point x="903" y="109" type="line"/>
      <point x="893" y="0" type="line"/>
      <point x="961" y="0" type="line"/>
      <point x="987" y="-278" type="line"/>
      <point x="1102" y="-278" type="line"/>
    </contour>
  </outline>
</glyph>
<glyph name="Shha-cy" format="2">
  <advance width="1200"/>
  <unicode hex="04BA"/>
  <anchor x="600" y="0" name="bottom"/>
  <anchor x="1100" y="0" name="bottomright"/>
  <anchor x="600" y="1374" name="top"/>
  <outline>
    <contour>
      <point x="697" y="887" type="curve" smooth="yes"/>
      <point x="515" y="887"/>
      <point x="394" y="819"/>
      <point x="295" y="697" type="curve"/>
      <point x="292" y="551" type="line"/>
      <point x="402" y="687"/>
      <point x="512" y="762"/>
      <point x="687" y="762" type="curve" smooth="yes"/>
      <point x="861" y="762"/>
      <point x="953" y="651"/>
      <point x="953" y="472" type="curve" smooth="yes"/>
      <point x="953" y="0" type="line"/>
      <point x="1080" y="0" type="line"/>
      <point x="1080" y="474" type="line" smooth="yes"/>
      <point x="1080" y="729"/>
      <point x="924" y="887"/>
    </contour>
    <contour>
      <point x="313" y="1374" type="line"/>
      <point x="186" y="1374" type="line"/>
      <point x="186" y="0" type="line"/>
      <point x="313" y="0" type="line"/>
    </contour>
  </outline>
</glyph>
<glyph name="cheabkhasian-cy" format="2">
  <advance width="1200"/>
  <unicode hex="04BD"/>
  <anchor x="885" y="0" name="ogonek"/>
  <outline>
    <contour>
      <point x="24" y="686" type="curve" smooth="yes"/>
      <point x="24" y="569"/>
      <point x="105" y="480"/>
      <point x="287" y="480" type="curve" smooth="yes"/>
      <point x="428" y="480" type="line"/>
      <point x="428" y="587" type="line"/>
      <point x="257" y="587" type="line" smooth="yes"/>
      <point x="188" y="587"/>
      <point x="151" y="627"/>
      <point x="151" y="696" type="curve" smooth="yes"/>
      <point x="151" y="746"/>
      <point x="171" y="790"/>
      <point x="198" y="845" type="curve"/>
      <point x="107" y="892" type="line"/>
      <point x="66" y="831"/>
      <point x="24" y="768"/>
    </contour>
    <contour>
      <point x="413" y="475" type="curve"/>
      <point x="1094" y="475" type="line"/>
      <point x="1095" y="496"/>
      <point x="1097" y="525"/>
      <point x="1097" y="561" type="curve" smooth="yes"/>
      <point x="1097" y="874"/>
      <point x="949" y="1069"/>
      <point x="701" y="1069" type="curve" smooth="yes"/>
      <point x="447" y="1069"/>
      <point x="279" y="835"/>
      <point x="279" y="524" type="curve" smooth="yes"/>
      <point x="279" y="197"/>
      <point x="457" y="-20"/>
      <point x="730" y="-20" type="curve" smooth="yes"/>
      <point x="847" y="-20"/>
      <point x="962" y="26"/>
      <point x="1040" y="88" type="curve"/>
      <point x="970" y="180" type="line"/>
      <point x="889" y="130"/>
      <point x="829" y="100"/>
      <point x="727" y="100" type="curve" smooth="yes"/>
      <point x="560" y="100"/>
      <point x="419" y="219"/>
    </contour>
    <contour>
      <point x="705" y="953" type="curve" smooth="yes"/>
      <point x="876" y="953"/>
      <point x="968" y="830"/>
      <point x="973" y="587" type="curve"/>
      <point x="415" y="587" type="line"/>
      <point x="432" y="835"/>
      <point x="546" y="953"/>
    </contour>
  </outline>
</glyph>
<glyph name="eltail-cy" format="2">
  <advance width="1200"/>
  <unicode hex="04C6"/>
  <outline>
    <contour>
      <point x="952" y="1050" type="line"/>
      <point x="330" y="1050" type="line"/>
      <point x="296" y="609" type="line" smooth="yes"/>
      <point x="262" y="174"/>
      <point x="200" y="122"/>
      <point x="103" y="64" type="curve"/>
      <point x="157" y="-17" type="line"/>
      <point x="323" y="82"/>
      <point x="374" y="153"/>
      <point x="415" y="616" type="curve" smooth="yes"/>
      <point x="444" y="938" type="line"/>
      <point x="828" y="938" type="line"/>
      <point x="828" y="0" type="line"/>
      <point x="952" y="0" type="line"/>
    </contour>
    <component base="descTail-cy" xOffset="268"/>
  </outline>
</glyph>
<glyph name="entail-cy" format="2">
  <advance width="1200"/>
  <unicode hex="04CA"/>
  <outline>
    <contour>
      <point x="833" y="0" type="line"/>
      <point x="957" y="0" type="line"/>
      <point x="957" y="1050" type="line"/>
      <point x="833" y="1050" type="line"/>
      <point x="833" y="592" type="line"/>
      <point x="349" y="592" type="line"/>
      <point x="349" y="1050" type="line"/>
      <point x="225" y="1050" type="line"/>
      <point x="225" y="0" type="line"/>
      <point x="349" y="0" type="line"/>
      <point x="349" y="483" type="line"/>
      <point x="833" y="483" type="line"/>
    </contour>
    <component base="descTail-cy" xOffset="273"/>
  </outline>
</glyph>
<glyph name="Komide-cy" format="2">
  <advance width="1200"/>
  <unicode hex="0500"/>
  <anchor x="600" y="0" name="bottom"/>
  <anchor x="600" y="1374" name="top"/>
  <outline>
    <contour>
      <point x="608" y="0" type="curve" smooth="yes"/>
      <point x="988" y="0" type="line"/>
      <point x="988" y="1374" type="line"/>
      <point x="861" y="1374" type="line"/>
      <point x="861" y="834" type="line"/>
      <point x="614" y="834" type="line" smooth="yes"/>
      <point x="308" y="834"/>
      <point x="112" y="675"/>
      <point x="112" y="407" type="curve" smooth="yes"/>
      <point x="112" y="133"/>
      <point x="332" y="0"/>
    </contour>
    <contour>
      <point x="603" y="112" type="line" smooth="yes"/>
      <point x="409" y="112"/>
      <point x="253" y="184"/>
      <point x="253" y="407" type="curve" smooth="yes"/>
      <point x="253" y="630"/>
      <point x="390" y="724"/>
      <point x="606" y="724" type="curve" smooth="yes"/>
      <point x="861" y="724" type="line"/>
      <point x="861" y="112" type="line"/>
    </contour>
  </outline>
</glyph>
<glyph name="komidzje-cy" format="2">
  <advance width="1200"/>
  <unicode hex="0507"/>
  <anchor x="600" y="-386" name="bottom"/>
  <anchor x="600" y="1050" name="top"/>
  <outline>
    <contour>
      <point x="228" y="429" type="line"/>
      <point x="543" y="429" type="line"/>
      <point x="778" y="446"/>
      <point x="934" y="540"/>
      <point x="934" y="740" type="curve" smooth="yes"/>
      <point x="934" y="946"/>
      <point x="781" y="1050"/>
      <point x="517" y="1050" type="curve" smooth="yes"/>
      <point x="154" y="1050" type="line"/>
      <point x="155" y="946" type="line"/>
      <point x="513" y="946" type="line" smooth="yes"/>
      <point x="708" y="946"/>
      <point x="802" y="887"/>
      <point x="802" y="743" type="curve" smooth="yes"/>
      <point x="802" y="587"/>
      <point x="704" y="533"/>
      <point x="553" y="533" type="curve" smooth="yes"/>
      <point x="228" y="533" type="line"/>
    </contour>
    <contour>
      <point x="838" y="0" type="line"/>
      <point x="980" y="0" type="line"/>
      <point x="650" y="490" type="line"/>
      <point x="523" y="486" type="line"/>
    </contour>
    <component base="descStraight-cy" xOffset="399"/>
  </outline>
</glyph>
<glyph name="Komitje-cy" format="2">
  <advance width="1200"/>
  <unicode hex="050E"/>
  <anchor x="600" y="0" name="bottom"/>
  <anchor x="600" y="1374" name="top"/>
  <outline>
    <contour>
      <point x="404" y="544" type="line"/>
      <point x="531" y="544" type="line"/>
      <point x="531" y="1250" type="line"/>
      <point x="945" y="1250" type="line"/>
      <point x="959" y="1374" type="line"/>
      <point x="33" y="1374" type="line"/>
      <point x="33" y="1250" type="line"/>
      <point x="404" y="1250" type="line"/>
    </contour>
    <contour>
      <point x="712" y="-20" type="curve" smooth="yes"/>
      <point x="889" y="-20"/>
      <point x="1128" y="131"/>
      <point x="1128" y="518" type="curve" smooth="yes"/>
      <point x="1128" y="600"/>
      <point x="1124" y="680"/>
      <point x="1119" y="758" type="curve"/>
      <point x="990" y="758" type="line"/>
      <point x="996" y="672"/>
      <point x="1000" y="600"/>
      <point x="1000" y="519" type="curve" smooth="yes"/>
      <point x="1000" y="175"/>
      <point x="854" y="90"/>
      <point x="720" y="90" type="curve" smooth="yes"/>
      <point x="600" y="90"/>
      <point x="531" y="179"/>
      <point x="531" y="390" type="curve" smooth="yes"/>
      <point x="531" y="544" type="line"/>
      <point x="403" y="544" type="line"/>
      <point x="403" y="330" type="line" smooth="yes"/>
      <point x="403" y="101"/>
      <point x="547" y="-20"/>
    </contour>
  </outline>
</glyph>
<glyph name="Reversedze-cy" format="2">
  <advance width="1200"/>
  <unicode hex="0510"/>
  <outline>
    <contour>
      <point x="637" y="1393" type="curve" smooth="yes"/>
      <point x="366" y="1393"/>
      <point x="179" y="1250"/>
      <point x="179" y="1035" type="curve" smooth="yes"/>
      <point x="179" y="876"/>
      <point x="314" y="771"/>
      <point x="455" y="752" type="curve"/>
      <point x="298" y="734"/>
      <point x="132" y="620"/>
      <point x="132" y="401" type="curve" smooth="yes"/>
      <point x="132" y="161"/>
      <point x="325" y="-20"/>
      <point x="634" y="-20" type="curve" smooth="yes"/>
      <point x="821" y="-20"/>
      <point x="998" y="49"/>
      <point x="1113" y="176" type="curve"/>
      <point x="1028" y="250" type="line"/>
      <point x="914" y="154"/>
      <point x="788" y="98"/>
      <point x="640" y="98" type="curve" smooth="yes"/>
      <point x="405" y="98"/>
      <point x="276" y="215"/>
      <point x="276" y="398" type="curve" smooth="yes"/>
      <point x="276" y="599"/>
      <point x="426" y="679"/>
      <point x="615" y="679" type="curve" smooth="yes"/>
      <point x="851" y="679" type="line"/>
      <point x="866" y="800" type="line"/>
      <point x="633" y="800" type="line" smooth="yes"/>
      <point x="469" y="800"/>
      <point x="315" y="871"/>
      <point x="315" y="1041" type="curve" smooth="yes"/>
      <point x="315" y="1204"/>
      <point x="458" y="1280"/>
      <point x="634" y="1280" type="curve" smooth="yes"/>
      <point x="795" y="1280"/>
      <point x="901" y="1225"/>
      <point x="1009" y="1140" type="curve"/>
      <point x="1089" y="1225" type="line"/>
      <point x="953" y="1337"/>
      <point x="807" y="1393"/>
    </contour>
  </outline>
</glyph>
<glyph name="elmiddlehook-cy" format="2">
  <advance width="1200"/>
  <unicode hex="0521"/>
  <anchor x="600" y="-386" name="bottom"/>
  <anchor x="600" y="1050" name="top"/>
  <outline>
    <contour>
      <point x="42" y="-17" type="line"/>
      <point x="195" y="91"/>
      <point x="240" y="179"/>
      <point x="281" y="668" type="curve" smooth="yes"/>
      <point x="305" y="934" type="line"/>
      <point x="554" y="934" type="line"/>
      <point x="554" y="0" type="line"/>
      <point x="696" y="0" type="line"/>
      <point x="696" y="1050" type="line"/>
      <point x="175" y="1050" type="line"/>
      <point x="145" y="653" type="line" smooth="yes"/>
      <point x="108" y="174"/>
      <point x="62" y="139"/>
      <point x="-11" y="75" type="curve"/>
    </contour>
    <contour>
      <point x="905" y="-414" type="curve" smooth="yes"/>
      <point x="1077" y="-414"/>
      <point x="1186" y="-322"/>
      <point x="1186" y="-133" type="curve" smooth="yes"/>
      <point x="1186" y="2" type="line"/>
      <point x="1046" y="2" type="line"/>
      <point x="1046" y="-134" type="line" smooth="yes"/>
      <point x="1046" y="-250"/>
      <point x="991" y="-295"/>
      <point x="902" y="-295" type="curve" smooth="yes"/>
      <point x="835" y="-295"/>
      <point x="796" y="-277"/>
      <point x="745" y="-248" type="curve"/>
      <point x="691" y="-344" type="line"/>
      <point x="732" y="-376"/>
      <point x="805" y="-414"/>
    </contour>
    <contour>
      <point x="1046" y="0" type="line"/>
      <point x="1186" y="0" type="line"/>
      <point x="1186" y="437" type="line" smooth="yes"/>
      <point x="1186" y="590"/>
      <point x="1079" y="701"/>
      <point x="927" y="701" type="curve" smooth="yes"/>
      <point x="782" y="701"/>
      <point x="696" y="632"/>
      <point x="631" y="519" type="curve"/>
      <point x="636" y="424" type="line"/>
      <point x="715" y="527"/>
      <point x="782" y="590"/>
      <point x="903" y="590" type="curve" smooth="yes"/>
      <point x="995" y="590"/>
      <point x="1046" y="528"/>
      <point x="1046" y="418" type="curve" smooth="yes"/>
    </contour>
  </outline>
</glyph>
<glyph name="enmiddlehook-cy" format="2">
  <advance width="1200"/>
  <unicode hex="0523"/>
  <anchor x="600" y="-386" name="bottom"/>
  <anchor x="600" y="1050" name="top"/>
  <outline>
    <contour>
      <point x="555" y="0" type="line"/>
      <point x="697" y="0" type="line"/>
      <point x="697" y="1050" type="line"/>
      <point x="555" y="1050" type="line"/>
      <point x="555" y="591" type="line"/>
      <point x="203" y="591" type="line"/>
      <point x="203" y="1050" type="line"/>
      <point x="62" y="1050" type="line"/>
      <point x="62" y="0" type="line"/>
      <point x="203" y="0" type="line"/>
      <point x="203" y="481" type="line"/>
      <point x="555" y="481" type="line"/>
    </contour>
    <contour>
      <point x="906" y="-414" type="curve" smooth="yes"/>
      <point x="1078" y="-414"/>
      <point x="1187" y="-322"/>
      <point x="1187" y="-133" type="curve" smooth="yes"/>
      <point x="1187" y="2" type="line"/>
      <point x="1047" y="2" type="line"/>
      <point x="1047" y="-134" type="line" smooth="yes"/>
      <point x="1047" y="-250"/>
      <point x="992" y="-295"/>
      <point x="903" y="-295" type="curve" smooth="yes"/>
      <point x="835" y="-295"/>
      <point x="797" y="-277"/>
      <point x="746" y="-248" type="curve"/>
      <point x="692" y="-344" type="line"/>
      <point x="733" y="-376"/>
      <point x="805" y="-414"/>
    </contour>
    <contour>
      <point x="1047" y="0" type="line"/>
      <point x="1187" y="0" type="line"/>
      <point x="1187" y="437" type="line" smooth="yes"/>
      <point x="1187" y="590"/>
      <point x="1080" y="701"/>
      <point x="928" y="701" type="curve" smooth="yes"/>
      <point x="783" y="701"/>
      <point x="697" y="632"/>
      <point x="632" y="519" type="curve"/>
      <point x="637" y="424" type="line"/>
      <point x="716" y="527"/>
      <point x="783" y="590"/>
      <point x="904" y="590" type="curve" smooth="yes"/>
      <point x="996" y="590"/>
      <point x="1047" y="528"/>
      <point x="1047" y="418" type="curve" smooth="yes"/>
    </contour>
  </outline>
</glyph>
<glyph name="dzzhe-cy" format="2">
  <advance width="1200"/>
  <unicode hex="052B"/>
  <anchor x="600" y="-386" name="bottom"/>
  <anchor x="600" y="1050" name="top"/>
  <outline>
    <contour>
      <point x="-18" y="-278" type="line"/>
      <point x="106" y="-278" type="line"/>
      <point x="135" y="0" type="line"/>
      <point x="206" y="0" type="line"/>
      <point x="193" y="127" type="line"/>
      <point x="-18" y="127" type="line"/>
    </contour>
    <contour>
      <point x="583" y="-278" type="line"/>
      <point x="706" y="-278" type="line"/>
      <point x="706" y="127" type="line"/>
      <point x="500" y="127" type="line"/>
      <point x="486" y="0" type="line"/>
      <point x="558" y="0" type="line"/>
    </contour>
    <contour>
      <point x="156" y="127" type="line"/>
      <point x="240" y="204"/>
      <point x="263" y="263"/>
      <point x="292" y="665" type="curve" smooth="yes"/>
      <point x="310" y="912" type="line"/>
      <point x="419" y="912" type="line"/>
      <point x="419" y="127" type="line"/>
    </contour>
    <contour>
      <point x="25" y="0" type="line"/>
      <point x="564" y="0" type="line"/>
      <point x="564" y="1050" type="line"/>
      <point x="177" y="1050" type="line"/>
      <point x="151" y="636" type="line" smooth="yes"/>
      <point x="126" y="243"/>
      <point x="91" y="182"/>
      <point x="25" y="127" type="curve"/>
    </contour>
    <contour>
      <point x="433" y="496" type="line"/>
      <point x="663" y="496" type="line"/>
      <point x="663" y="0" type="line"/>
      <point x="812" y="0" type="line"/>
      <point x="812" y="496" type="line"/>
      <point x="862" y="496" type="line"/>
      <point x="1058" y="0" type="line"/>
      <point x="1215" y="0" type="line"/>
      <point x="982" y="564" type="line"/>
      <point x="1168" y="1050" type="line"/>
      <point x="1028" y="1050" type="line"/>
      <point x="863" y="626" type="line"/>
      <point x="812" y="626" type="line"/>
      <point x="812" y="1050" type="line"/>
      <point x="663" y="1050" type="line"/>
      <point x="663" y="626" type="line"/>
      <point x="434" y="626" type="line"/>
    </contour>
  </outline>
</glyph>
<glyph name="Eldescender-cy" format="2">
  <advance width="1200"/>
  <unicode hex="052E"/>
  <outline>
    <contour>
      <point x="950" y="1374" type="line"/>
      <point x="327" y="1374" type="line"/>
      <point x="238" y="719" type="line" smooth="yes"/>
      <point x="164" y="203"/>
      <point x="89" y="155"/>
      <point x="13" y="86" type="curve"/>
      <point x="74" y="-17" type="line"/>
      <point x="224" y="104"/>
      <point x="298" y="164"/>
      <point x="381" y="792" type="curve" smooth="yes"/>
      <point x="438" y="1255" type="line"/>
      <point x="823" y="1255" type="line"/>
      <point x="823" y="0" type="line"/>
      <point x="950" y="0" type="line"/>
    </contour>
    <component base="descStraight-cy.case" xOffset="392"/>
  </outline>
</glyph>
<glyph name="quotedblleft" format="2">
  <advance width="1200"/>
  <unicode hex="201C"/>
  <outline>
    <contour>
      <point x="513" y="1109" type="curve" smooth="yes"/>
      <point x="513" y="1149"/>
      <point x="494" y="1187"/>
      <point x="466" y="1207" type="curve"/>
      <point x="546" y="1578" type="line"/>
      <point x="427" y="1578" type="line"/>
      <point x="259" y="1219" type="line" smooth="yes"/>
      <point x="233" y="1163"/>
      <point x="232" y="1136"/>
      <point x="232" y="1109" type="curve" smooth="yes"/>
      <point x="232" y="1033"/>
      <point x="292" y="974"/>
      <point x="372" y="974" type="curve" smooth="yes"/>
      <point x="448" y="974"/>
      <point x="513" y="1033"/>
    </contour>
    <contour>
      <point x="934" y="1109" type="curve" smooth="yes"/>
      <point x="934" y="1149"/>
      <point x="917" y="1187"/>
      <point x="889" y="1207" type="curve"/>
      <point x="968" y="1578" type="line"/>
      <point x="852" y="1578" type="line"/>
      <point x="681" y="1219" type="line" smooth="yes"/>
      <point x="656" y="1163"/>
      <point x="654" y="1136"/>
      <point x="654" y="1109" type="curve" smooth="yes"/>
      <point x="654" y="1033"/>
      <point x="717" y="974"/>
      <point x="793" y="974" type="curve" smooth="yes"/>
      <point x="868" y="974"/>
      <point x="934" y="1033"/>
    </contour>
  </outline>
</glyph>
<glyph name="guilsinglleft" format="2">
  <advance width="1200"/>
  <unicode hex="2039"/>
  <outline>
    <contour>
      <point x="804" y="176" type="line"/>
      <point x="534" y="591" type="line"/>
      <point x="804" y="1007" type="line"/>
      <point x="733" y="1051" type="line"/>
      <point x="396" y="639" type="line"/>
      <point x="396" y="541" type="line"/>
      <point x="733" y="133" type="line"/>
    </contour>
  </outline>
</glyph>
<glyph name="euro" format="2">
  <advance width="1200"/>
  <unicode hex="20AC"/>
  <outline>
    <contour>
      <point x="746" y="1393" type="curve" smooth="yes"/>
      <point x="513" y="1393"/>
      <point x="321" y="1221"/>
      <point x="264" y="897" type="curve"/>
      <point x="96" y="897" type="line"/>
      <point x="72" y="795" type="line"/>
      <point x="251" y="795" type="line"/>
      <point x="248" y="597" type="line"/>
      <point x="97" y="597" type="line"/>
      <point x="73" y="493" type="line"/>
      <point x="260" y="493" type="line"/>
      <point x="303" y="162"/>
      <point x="469" y="-20"/>
      <point x="739" y="-20" type="curve" smooth="yes"/>
      <point x="868" y="-20"/>
      <point x="967" y="15"/>
      <point x="1023" y="52" type="curve"/>
      <point x="1023" y="202" type="line"/>
      <point x="969" y="151"/>
      <point x="869" y="98"/>
      <point x="740" y="98" type="curve" smooth="yes"/>
      <point x="532" y="98"/>
      <point x="426" y="220"/>
      <point x="393" y="493" type="curve"/>
      <point x="823" y="493" type="line"/>
      <point x="847" y="597" type="line"/>
      <point x="389" y="597" type="line"/>
      <point x="389" y="795" type="line"/>
      <point x="888" y="795" type="line"/>
      <point x="913" y="897" type="line"/>
      <point x="399" y="897" type="line"/>
      <point x="437" y="1169"/>
      <point x="564" y="1274"/>
      <point x="750" y="1274" type="curve" smooth="yes"/>
      <point x="828" y="1274"/>
      <point x="910" y="1254"/>
      <point x="984" y="1206" type="curve"/>
      <point x="1059" y="1306" type="line"/>
      <point x="969" y="1366"/>
      <point x="876" y="1393"/>
    </contour>
  </outline>
</glyph>
<glyph name="ruble" format="2">
  <advance width="1200"/>
  <unicode hex="20BD"/>
  <outline>
    <contour>
      <point x="306" y="0" type="line"/>
      <point x="433" y="0" type="line"/>
      <point x="433" y="509" type="line"/>
      <point x="596" y="509" type="line" smooth="yes"/>
      <point x="900" y="509"/>
      <point x="1122" y="620"/>
      <point x="1122" y="957" type="curve" smooth="yes"/>
      <point x="1122" y="1244"/>
      <point x="924" y="1374"/>
      <point x="609" y="1374" type="curve" smooth="yes"/>
      <point x="306" y="1374" type="line"/>
    </contour>
    <contour>
      <point x="146" y="243" type="line"/>
      <point x="808" y="243" type="line"/>
      <point x="808" y="346" type="line"/>
      <point x="146" y="346" type="line"/>
    </contour>
    <contour>
      <point x="146" y="509" type="line"/>
      <point x="435" y="509" type="line"/>
      <point x="435" y="620" type="line"/>
      <point x="146" y="620" type="line"/>
    </contour>
    <contour>
      <point x="433" y="620" type="line"/>
      <point x="433" y="1263" type="line"/>
      <point x="636" y="1263" type="line" smooth="yes"/>
      <point x="828" y="1263"/>
      <point x="982" y="1185"/>
      <point x="982" y="954" type="curve" smooth="yes"/>
      <point x="982" y="685"/>
      <point x="827" y="620"/>
      <point x="623" y="620" type="curve" smooth="yes"/>
    </contour>
  </outline>
</glyph>
<glyph name="literSign" format="2">
  <advance width="1200"/>
  <unicode hex="2113"/>
  <outline>
    <contour>
      <point x="694" y="-20" type="curve" smooth="yes"/>
      <point x="792" y="-20"/>
      <point x="875" y="4"/>
      <point x="927" y="30" type="curve"/>
      <point x="891" y="126" type="line"/>
      <point x="830" y="102"/>
      <point x="772" y="88"/>
      <point x="707" y="88" type="curve" smooth="yes"/>
      <point x="600" y="88"/>
      <point x="522" y="129"/>
      <point x="522" y="238" type="curve" smooth="yes"/>
      <point x="522" y="1034" type="line" smooth="yes"/>
      <point x="522" y="1277"/>
      <point x="563" y="1392"/>
      <point x="688" y="1392" type="curve" smooth="yes"/>
      <point x="768" y="1392"/>
      <point x="802" y="1349"/>
      <point x="801" y="1254" type="curve" smooth="yes"/>
      <point x="799" y="1024"/>
      <point x="706" y="874"/>
      <point x="395" y="608" type="curve"/>
      <point x="194" y="431" type="line"/>
      <point x="260" y="357" type="line"/>
      <point x="370" y="456" type="line"/>
      <point x="474" y="528" type="line"/>
      <point x="832" y="788"/>
      <point x="949" y="1006"/>
      <point x="949" y="1247" type="curve" smooth="yes"/>
      <point x="949" y="1386"/>
      <point x="859" y="1492"/>
      <point x="703" y="1492" type="curve" smooth="yes"/>
      <point x="522" y="1492"/>
      <point x="403" y="1349"/>
      <point x="403" y="1066" type="curve" smooth="yes"/>
      <point x="403" y="238" type="line" smooth="yes"/>
      <point x="403" y="74"/>
      <point x="528" y="-20"/>
    </contour>
  </outline>
</glyph>
<glyph name="numero" format="2">
  <advance width="1200"/>
  <unicode hex="2116"/>
  <outline>
    <contour>
      <point x="590" y="1374" type="line"/>
      <point x="493" y="1374" type="line"/>
      <point x="493" y="620" type="line" smooth="yes"/>
      <point x="493" y="364"/>
      <point x="509" y="154"/>
      <point x="504" y="161" type="curve"/>
      <point x="496" y="161" type="line"/>
      <point x="277" y="1374" type="line"/>
      <point x="72" y="1374" type="line"/>
      <point x="72" y="0" type="line"/>
      <point x="168" y="0" type="line"/>
      <point x="168" y="758" type="line" smooth="yes"/>
      <point x="168" y="970"/>
      <point x="155" y="1205"/>
      <point x="158" y="1206" type="curve"/>
      <point x="166" y="1206" type="line"/>
      <point x="385" y="0" type="line"/>
      <point x="590" y="0" type="line"/>
    </contour>
    <contour>
      <point x="1141" y="117" type="line"/>
      <point x="650" y="117" type="line"/>
      <point x="650" y="0" type="line"/>
      <point x="1141" y="0" type="line"/>
    </contour>
    <contour>
      <point x="894" y="1402" type="curve" smooth="yes"/>
      <point x="705" y="1402"/>
      <point x="629" y="1223"/>
      <point x="629" y="962" type="curve" smooth="yes"/>
      <point x="629" y="696"/>
      <point x="703" y="524"/>
      <point x="894" y="524" type="curve" smooth="yes"/>
      <point x="1089" y="524"/>
      <point x="1157" y="704"/>
      <point x="1157" y="962" type="curve" smooth="yes"/>
      <point x="1157" y="1234"/>
      <point x="1086" y="1402"/>
    </contour>
    <contour>
      <point x="894" y="1311" type="curve" smooth="yes"/>
      <point x="983" y="1311"/>
      <point x="1012" y="1190"/>
      <point x="1012" y="962" type="curve" smooth="yes"/>
      <point x="1012" y="733"/>
      <point x="987" y="614"/>
      <point x="894" y="614" type="curve" smooth="yes"/>
      <point x="805" y="614"/>
      <point x="777" y="733"/>
      <point x="777" y="962" type="curve" smooth="yes"/>
      <point x="777" y="1190"/>
      <point x="805" y="1311"/>
    </contour>
  </outline>
</glyph>
<glyph name="estimated" format="2">
  <advance width="1200"/>
  <unicode hex="212E"/>
  <outline>
    <contour>
      <point x="604" y="1402" type="curve" smooth="yes"/>
      <point x="242" y="1402"/>
      <point x="84" y="1188"/>
      <point x="42" y="936" type="curve"/>
      <point x="42" y="428" type="line"/>
      <point x="90" y="172"/>
      <point x="264" y="-24"/>
      <point x="608" y="-24" type="curve" smooth="yes"/>
      <point x="866" y="-24"/>
      <point x="1016" y="92"/>
      <point x="1094" y="246" type="curve"/>
      <point x="996" y="246" type="line"/>
      <point x="928" y="124"/>
      <point x="794" y="52"/>
      <point x="610" y="52" type="curve" smooth="yes"/>
      <point x="472" y="52"/>
      <point x="372" y="88"/>
      <point x="302" y="146" type="curve"/>
      <point x="302" y="668" type="line"/>
      <point x="1166" y="668" type="line"/>
      <point x="1166" y="936" type="line"/>
      <point x="1124" y="1188"/>
      <point x="966" y="1402"/>
    </contour>
    <contour>
      <point x="606" y="1324" type="curve" smooth="yes"/>
      <point x="730" y="1324"/>
      <point x="838" y="1288"/>
      <point x="900" y="1238" type="curve"/>
      <point x="900" y="746" type="line"/>
      <point x="302" y="746" type="line"/>
      <point x="302" y="1240" type="line"/>
      <point x="374" y="1296"/>
      <point x="478" y="1324"/>
    </contour>
  </outline>
</glyph>
<glyph name="arrowright" format="2">
  <advance width="1200"/>
  <unicode hex="2192"/>
  <outline>
    <contour>
      <point x="615" y="1248" type="line"/>
      <point x="515" y="1164" type="line"/>
      <point x="844" y="802" type="line" smooth="yes"/>
      <point x="890" y="750"/>
      <point x="890" y="747"/>
      <point x="938" y="716" type="curve"/>
      <point x="59" y="716" type="line"/>
      <point x="59" y="600" type="line"/>
      <point x="940" y="600" type="line"/>
      <point x="901" y="576"/>
      <point x="871" y="543"/>
      <point x="844" y="514" type="curve" smooth="yes"/>
      <point x="515" y="152" type="line"/>
      <point x="615" y="68" type="line"/>
      <point x="1141" y="658" type="line"/>
    </contour>
  </outline>
</glyph>
<glyph name="arrowupdown" format="2">
  <advance width="1200"/>
  <unicode hex="2195"/>
  <outline>
    <contour>
      <point x="600" y="1715" type="line"/>
      <point x="-22" y="1168" type="line"/>
      <point x="55" y="1078" type="line"/>
      <point x="429" y="1419" type="line" smooth="yes"/>
      <point x="464" y="1445"/>
      <point x="503" y="1481"/>
      <point x="536" y="1542" type="curve"/>
      <point x="536" y="-172" type="line"/>
      <point x="503" y="-112"/>
      <point x="464" y="-76"/>
      <point x="429" y="-50" type="curve" smooth="yes"/>
      <point x="55" y="291" type="line"/>
      <point x="-22" y="201" type="line"/>
      <point x="600" y="-346" type="line"/>
      <point x="1222" y="201" type="line"/>
      <point x="1145" y="291" type="line"/>
      <point x="770" y="-51" type="line" smooth="yes"/>
      <point x="735" y="-77"/>
      <point x="694" y="-114"/>
      <point x="664" y="-171" type="curve"/>
      <point x="664" y="1541" type="line"/>
      <point x="694" y="1484"/>
      <point x="735" y="1446"/>
      <point x="770" y="1420" type="curve" smooth="yes"/>
      <point x="1145" y="1078" type="line"/>
      <point x="1222" y="1168" type="line"/>
    </contour>
  </outline>
</glyph>
<glyph name="arrowupright" format="2">
  <advance width="1200"/>
  <unicode hex="2197"/>
  <outline>
    <contour>
      <point x="183" y="178" type="line"/>
      <point x="964" y="976" type="line"/>
      <point x="948" y="896"/>
      <point x="949" y="831"/>
      <point x="952" y="790" type="curve" smooth="yes"/>
      <point x="980" y="338" type="line"/>
      <point x="1105" y="345" type="line"/>
      <point x="1061" y="1153" type="line"/>
      <point x="276" y="1197" type="line"/>
      <point x="270" y="1071" type="line"/>
      <point x="668" y="1050" type="line" smooth="yes"/>
      <point x="745" y="1046"/>
      <point x="785" y="1045"/>
      <point x="876" y="1061" type="curve"/>
      <point x="95" y="265" type="line"/>
    </contour>
  </outline>
</glyph>
<glyph name="arrowdownleft" format="2">
  <advance width="1200"/>
  <unicode hex="2199"/>
  <outline>
    <contour>
      <point x="1017" y="1120" type="line"/>
      <point x="236" y="322" type="line"/>
      <point x="252" y="402"/>
      <point x="251" y="467"/>
      <point x="248" y="508" type="curve" smooth="yes"/>
      <point x="220" y="959" type="line"/>
      <point x="95" y="953" type="line"/>
      <point x="139" y="145" type="line"/>
      <point x="924" y="101" type="line"/>
      <point x="930" y="227" type="line"/>
      <point x="532" y="248" type="line" smooth="yes"/>
      <point x="455" y="252"/>
      <point x="415" y="253"/>
      <point x="324" y="237" type="curve"/>
      <point x="1105" y="1033" type="line"/>
    </contour>
  </outline>
</glyph>
<glyph name="arrowdownwhite" format="2">
  <advance width="1200"/>
  <unicode hex="21E9"/>
  <outline>
    <contour>
      <point x="762" y="1500" type="curve" smooth="yes"/>
      <point x="438" y="1500" type="line"/>
      <point x="378" y="1500"/>
      <point x="338" y="1460"/>
      <point x="338" y="1400" type="curve" smooth="yes"/>
      <point x="338" y="408" type="line"/>
      <point x="0" y="408" type="line"/>
      <point x="600" y="-188" type="line"/>
      <point x="1200" y="408" type="line"/>
      <point x="862" y="408" type="line"/>
      <point x="862" y="1400" type="line" smooth="yes"/>
      <point x="862" y="1460"/>
      <point x="822" y="1500"/>
    </contour>
    <contour>
      <point x="768" y="1412" type="line"/>
      <point x="768" y="318" type="line"/>
      <point x="982" y="318" type="line"/>
      <point x="600" y="-60" type="line"/>
      <point x="218" y="318" type="line"/>
      <point x="432" y="318" type="line"/>
      <point x="432" y="1412" type="line"/>
    </contour>
  </outline>
</glyph>
<glyph name="equivalence" format="2">
  <advance width="1200"/>
  <unicode hex="2261"/>
  <outline>
    <contour>
      <point x="970" y="1048" type="line"/>
      <point x="230" y="1048" type="line"/>
      <point x="230" y="934" type="line"/>
      <point x="970" y="934" type="line"/>
    </contour>
    <contour>
      <point x="970" y="313" type="line"/>
      <point x="230" y="313" type="line"/>
      <point x="230" y="197" type="line"/>
      <point x="970" y="197" type="line"/>
    </contour>
    <contour>
      <point x="970" y="680" type="line"/>
      <point x="230" y="680" type="line"/>
      <point x="230" y="565" type="line"/>
      <point x="970" y="565" type="line"/>
    </contour>
  </outline>
</glyph>
<glyph name="lessequal" format="2">
  <advance width="1200"/>
  <unicode hex="2264"/>
  <outline>
    <contour>
      <point x="909" y="1035" type="line"/>
      <point x="231" y="716" type="line"/>
      <point x="231" y="567" type="line"/>
      <point x="909" y="265" type="line"/>
      <point x="967" y="380" type="line"/>
      <point x="321" y="640" type="line"/>
      <point x="967" y="922" type="line"/>
    </contour>
    <contour>
      <point x="926" y="121" type="line"/>
      <point x="227" y="121" type="line"/>
      <point x="227" y="0" type="line"/>
      <point x="926" y="0" type="line"/>
    </contour>
  </outline>
</glyph>
<glyph name="integraltp" format="2">
  <advance width="1200"/>
  <unicode hex="2320"/>
  <outline>
    <contour>
      <point x="792" y="1695" type="curve" smooth="yes"/>
      <point x="635" y="1695"/>
      <point x="521" y="1615"/>
      <point x="521" y="1431" type="curve"/>
      <point x="521" y="-1000" type="line"/>
      <point x="638" y="-1000" type="line"/>
      <point x="638" y="1426" type="line"/>
      <point x="638" y="1524"/>
      <point x="670" y="1585"/>
      <point x="791" y="1585" type="curve" smooth="yes"/>
      <point x="849" y="1585"/>
      <point x="907" y="1576"/>
      <point x="977" y="1545" type="curve"/>
      <point x="1022" y="1646" type="line"/>
      <point x="938" y="1684"/>
      <point x="885" y="1695"/>
    </contour>
  </outline>
</glyph>
<glyph name="boxLightQuadrupleDashVertical" format="2">
  <advance width="1200"/>
  <unicode hex="250A"/>
  <outline>
    <contour>
      <point x="520" y="1244" type="line"/>
      <point x="520" y="748" type="line"/>
      <point x="680" y="748" type="line"/>
      <point x="680" y="1244" type="line"/>
    </contour>
    <contour>
      <point x="520" y="588" type="line"/>
      <point x="520" y="92" type="line"/>
      <point x="680" y="92" type="line"/>
      <point x="680" y="588" type="line"/>
    </contour>
    <contour>
      <point x="520" y="1900" type="line"/>
      <point x="520" y="1404" type="line"/>
      <point x="680" y="1404" type="line"/>
      <point x="680" y="1900" type="line"/>
    </contour>
    <contour>
      <point x="520" y="-68" type="line"/>
      <point x="520" y="-564" type="line"/>
      <point x="680" y="-564" type="line"/>
      <point x="680" y="-68" type="line"/>
    </contour>
  </outline>
</glyph>
<glyph name="boxLightDoubleDashVertical" format="2">
  <advance width="1200"/>
  <unicode hex="254E"/>
  <outline>
    <contour>
      <point x="680" y="588" type="line"/>
      <point x="520" y="588" type="line"/>
      <point x="520" y="-564" type="line"/>
      <point x="680" y="-564" type="line"/>
    </contour>
    <contour>
      <point x="680" y="1900" type="line"/>
      <point x="520" y="1900" type="line"/>
      <point x="520" y="748" type="line"/>
      <point x="680" y="748" type="line"/>
    </contour>
  </outline>
</glyph>
<glyph name="SF260000" format="2">
  <advance width="1200"/>
  <unicode hex="255D"/>
  <outline>
    <contour>
      <point x="840" y="2000" type="line"/>
      <point x="680" y="2000" type="line"/>
      <point x="680" y="620" type="line"/>
      <point x="-10" y="620" type="line"/>
      <point x="-10" y="460" type="line"/>
      <point x="840" y="460" type="line"/>
    </contour>
    <contour>
      <point x="520" y="2000" type="line"/>
      <point x="360" y="2000" type="line"/>
      <point x="360" y="940" type="line"/>
      <point x="-10" y="940" type="line"/>
      <point x="-10" y="780" type="line"/>
      <point x="520" y="780" type="line"/>
    </contour>
  </outline>
</glyph>
<glyph name="leftSevenEighthsBlock" format="2">
  <advance width="1200"/>
  <unicode hex="2589"/>
  <outline>
    <contour>
      <point x="1050" y="2000" type="line"/>
      <point x="0" y="2000" type="line"/>
      <point x="0" y="-1000" type="line"/>
      <point x="1050" y="-1000" type="line"/>
    </contour>
  </outline>
</glyph>
<glyph name="blackDiamond" format="2">
  <advance width="1200"/>
  <unicode hex="25C6"/>
  <outline>
    <contour>
      <point x="600" y="1080" type="line"/>
      <point x="60" y="540" type="line"/>
      <point x="600" y="0" type="line"/>
      <point x="1140" y="540" type="line"/>
    </contour>
  </outline>
</glyph>
<glyph name="whiteSquareWithUpperLeftQuadrant" format="2">
  <advance width="1200"/>
  <unicode hex="25F0"/>
  <outline>
    <contour>
      <point x="1140" y="1080" type="line"/>
      <point x="60" y="1080" type="line"/>
      <point x="60" y="0" type="line"/>
      <point x="1140" y="0" type="line"/>
    </contour>
    <contour>
      <point x="980" y="920" type="line"/>
      <point x="980" y="160" type="line"/>
      <point x="220" y="160" type="line"/>
      <point x="220" y="460" type="line"/>
      <point x="680" y="460" type="line"/>
      <point x="680" y="920" type="line"/>
    </contour>
    <contour>
      <point x="520" y="920" type="line"/>
      <point x="520" y="620" type="line"/>
      <point x="220" y="620" type="line"/>
      <point x="220" y="920" type="line"/>
    </contour>
  </outline>
</glyph>
<glyph name="male" format="2">
  <advance width="1200"/>
  <unicode hex="2642"/>
  <outline>
    <contour>
      <point x="630" y="974" type="line"/>
      <point x="622" y="890" type="line"/>
      <point x="822" y="882" type="line" smooth="yes"/>
      <point x="858" y="880"/>
      <point x="884" y="880"/>
      <point x="916" y="882" type="curve"/>
      <point x="918" y="878" type="line"/>
      <point x="614" y="576" type="line"/>
      <point x="564" y="606"/>
      <point x="504" y="626"/>
      <point x="440" y="626" type="curve" smooth="yes"/>
      <point x="262" y="626"/>
      <point x="120" y="488"/>
      <point x="120" y="310" type="curve" smooth="yes"/>
      <point x="120" y="132"/>
      <point x="262" y="0"/>
      <point x="440" y="0" type="curve" smooth="yes"/>
      <point x="618" y="0"/>
      <point x="762" y="132"/>
      <point x="762" y="310" type="curve" smooth="yes"/>
      <point x="762" y="388"/>
      <point x="734" y="458"/>
      <point x="688" y="514" type="curve"/>
      <point x="984" y="816" type="line"/>
      <point x="988" y="814" type="line"/>
      <point x="982" y="782"/>
      <point x="980" y="752"/>
      <point x="982" y="718" type="curve" smooth="yes"/>
      <point x="992" y="520" type="line"/>
      <point x="1080" y="524" type="line"/>
      <point x="1058" y="952" type="line"/>
    </contour>
    <contour>
      <point x="440" y="534" type="curve" smooth="yes"/>
      <point x="568" y="534"/>
      <point x="660" y="438"/>
      <point x="660" y="310" type="curve" smooth="yes"/>
      <point x="660" y="182"/>
      <point x="568" y="88"/>
      <point x="440" y="88" type="curve" smooth="yes"/>
      <point x="312" y="88"/>
      <point x="222" y="182"/>
      <point x="222" y="310" type="curve" smooth="yes"/>
      <point x="222" y="438"/>
      <point x="312" y="534"/>
    </contour>
  </outline>
</glyph>
<glyph name="leftBlackArrow" format="2">
  <advance width="1200"/>
  <unicode hex="2B05"/>
  <outline>
    <contour>
      <point x="516" y="1226" type="line"/>
      <point x="-80" y="626" type="line"/>
      <point x="516" y="26" type="line"/>
      <point x="516" y="378" type="line"/>
      <point x="1180" y="378" type="line" smooth="yes"/>
      <point x="1240" y="378"/>
      <point x="1280" y="418"/>
      <point x="1280" y="478" type="curve" smooth="yes"/>
      <point x="1280" y="774" type="line" smooth="yes"/>
      <point x="1280" y="834"/>
      <point x="1240" y="874"/>
      <point x="1180" y="874" type="curve" smooth="yes"/>
      <point x="516" y="874" type="line"/>
    </contour>
  </outline>
</glyph>
<glyph name="downBlackArrow" format="2">
  <advance width="1200"/>
  <unicode hex="2B07"/>
  <outline>
    <contour>
      <point x="762" y="1500" type="curve" smooth="yes"/>
      <point x="438" y="1500" type="line" smooth="yes"/>
      <point x="378" y="1500"/>
      <point x="338" y="1460"/>
      <point x="338" y="1400" type="curve" smooth="yes"/>
      <point x="338" y="408" type="line"/>
      <point x="0" y="408" type="line"/>
      <point x="600" y="-188" type="line"/>
      <point x="1200" y="408" type="line"/>
      <point x="862" y="408" type="line"/>
      <point x="862" y="1400" type="line" smooth="yes"/>
      <point x="862" y="1460"/>
      <point x="822" y="1500"/>
    </contour>
  </outline>
</glyph>
<glyph name="uniE0A0" format="2">
  <advance width="1200"/>
  <unicode hex="E0A0"/>
  <outline>
    <contour>
      <point x="306" y="1800" type="line"/>
      <point x="169" y="1800" type="line"/>
      <point x="169" y="446" type="line"/>
      <point x="306" y="544" type="line"/>
    </contour>
    <contour>
      <point x="472" y="286" type="line" smooth="yes"/>
      <point x="267" y="183"/>
      <point x="166" y="119"/>
      <point x="166" y="-112" type="curve"/>
      <point x="166" y="-378" type="line"/>
      <point x="298" y="-378" type="line"/>
      <point x="298" y="-130" type="line"/>
      <point x="298" y="69"/>
      <point x="428" y="114"/>
      <point x="556" y="180" type="curve" smooth="yes"/>
      <point x="754" y="280" type="line" smooth="yes"/>
      <point x="982" y="394"/>
      <point x="998" y="483"/>
      <point x="998" y="704" type="curve"/>
      <point x="998" y="1194" type="line"/>
      <point x="866" y="1194" type="line"/>
      <point x="866" y="748" type="line"/>
      <point x="866" y="605"/>
      <point x="871" y="488"/>
      <point x="746" y="424" type="curve" smooth="yes"/>
    </contour>
    <contour>
      <point x="931" y="1158" type="line"/>
      <point x="1347" y="888" type="line"/>
      <point x="1390" y="959" type="line"/>
      <point x="931" y="1336" type="line"/>
      <point x="473" y="959" type="line"/>
      <point x="516" y="888" type="line"/>
    </contour>
  </outline>
</glyph>
<glyph name="uniE0B0" format="2">
  <advance width="1200"/>
  <unicode hex="E0B0"/>
  <outline>
    <contour>
      <point x="0" y="1800" type="line"/>
      <point x="0" y="-404" type="line"/>
      <point x="1000" y="698" type="line"/>
    </contour>
  </outline>
</glyph>
<glyph name="_part.arrowhead" format="2">
  <advance width="1200"/>
  <outline>
    <contour>
      <point x="415" y="1216" type="line"/>
      <point x="315" y="1132" type="line"/>
      <point x="775" y="626" type="line"/>
      <point x="315" y="120" type="line"/>
      <point x="415" y="36" type="line"/>
      <point x="941" y="626" type="line"/>
    </contour>
  </outline>
</glyph>
<glyph name="_part.brackets" format="2">
  <advance width="1200"/>
  <outline>
    <contour>
      <point x="615" y="1626" type="line"/>
      <point x="-1815" y="1626" type="line"/>
      <point x="-1815" y="-226" type="line"/>
      <point x="615" y="-226" type="line"/>
    </contour>
    <contour>
      <point x="498" y="-112" type="line"/>
      <point x="-1698" y="-111" type="line"/>
      <point x="-1698" y="1509" type="line"/>
      <point x="498" y="1509" type="line"/>
    </contour>
  </outline>
</glyph>
<glyph name="acute.case" format="2">
  <advance width="1200"/>
  <anchor x="590" y="1374" name="_top"/>
  <outline>
    <contour>
      <point x="757" y="1784" type="line"/>
      <point x="371" y="1583" type="line"/>
      <point x="407" y="1514" type="line"/>
      <point x="820" y="1667" type="line"/>
    </contour>
  </outline>
</glyph>
<glyph name="acute.case.loclPLK" format="2">
  <advance width="1200"/>
  <anchor x="533" y="1374" name="_top"/>
  <outline>
    <contour>
      <point x="659" y="1795" type="line"/>
      <point x="445" y="1487" type="line"/>
      <point x="507" y="1449" type="line"/>
      <point x="757" y="1729" type="line"/>
    </contour>
  </outline>
</glyph>
<glyph name="acute.loclPLK" format="2">
  <advance width="1200"/>
  <anchor x="533" y="1050" name="_top"/>
  <outline>
    <contour>
      <point x="656" y="1511" type="line"/>
      <point x="445" y="1188" type="line"/>
      <point x="507" y="1150" type="line"/>
      <point x="754" y="1444" type="line"/>
    </contour>
  </outline>
</glyph>
<glyph name="asciitilde_greater.liga" format="2">
  <advance width="1200"/>
  <outline>
    <contour>
      <point x="-718" y="745" type="curve"/>
      <point x="-836" y="685" type="line"/>
      <point x="-802" y="611"/>
      <point x="-661" y="464"/>
      <point x="-514" y="464" type="curve" smooth="yes"/>
      <point x="-299" y="464"/>
      <point x="-258" y="664"/>
      <point x="-114" y="664" type="curve" smooth="yes"/>
      <point x="31" y="664"/>
      <point x="70" y="452"/>
      <point x="286" y="452" type="curve" smooth="yes"/>
      <point x="491" y="452"/>
      <point x="507" y="592"/>
      <point x="676" y="619" type="curve"/>
      <point x="676" y="749" type="line"/>
      <point x="461" y="750"/>
      <point x="426" y="580"/>
      <point x="286" y="580" type="curve" smooth="yes"/>
      <point x="142" y="580"/>
      <point x="101" y="780"/>
      <point x="-114" y="780" type="curve" smooth="yes"/>
      <point x="-329" y="780"/>
      <point x="-370" y="580"/>
      <point x="-514" y="580" type="curve" smooth="yes"/>
      <point x="-590" y="580"/>
      <point x="-669" y="651"/>
    </contour>
    <component base="_part.arrowhead1" xOffset="-270"/>
  </outline>
</glyph>
<glyph name="breve-cy" format="2">
  <advance width="1200"/>
  <anchor x="603" y="1050" name="_top"/>
  <outline>
    <contour>
      <point x="597" y="1314" type="curve" smooth="yes"/>
      <point x="734" y="1314"/>
      <point x="869" y="1370"/>
      <point x="885" y="1514" type="curve"/>
      <point x="787" y="1538" type="line"/>
      <point x="755" y="1448"/>
      <point x="692" y="1419"/>
      <point x="597" y="1419" type="curve" smooth="yes"/>
      <point x="502" y="1419"/>
      <point x="448" y="1448"/>
      <point x="416" y="1538" type="curve"/>
      <point x="317" y="1514" type="line"/>
      <point x="333" y="1370"/>
      <point x="464" y="1314"/>
    </contour>
  </outline>
</glyph>
<glyph name="circumflex.case" format="2">
  <advance width="1200"/>
  <anchor x="600" y="1374" name="_top"/>
  <outline>
    <contour>
      <point x="646" y="1802" type="line"/>
      <point x="557" y="1802" type="line"/>
      <point x="290" y="1600" type="line"/>
      <point x="354" y="1528" type="line"/>
      <point x="600" y="1686" type="line"/>
      <point x="849" y="1528" type="line"/>
      <point x="911" y="1600" type="line"/>
    </contour>
  </outline>
</glyph>
<glyph name="colon_equal.liga" format="2">
  <advance width="1200"/>
  <outline>
    <contour>
      <point x="970" y="863" type="line"/>
      <point x="-118" y="863" type="line"/>
      <point x="-118" y="748" type="line"/>
      <point x="970" y="748" type="line"/>
    </contour>
    <contour>
      <point x="970" y="496" type="line"/>
      <point x="-118" y="496" type="line"/>
      <point x="-118" y="380" type="line"/>
      <point x="970" y="380" type="line"/>
    </contour>
    <contour>
      <point x="-768" y="376" type="curve" smooth="yes"/>
      <point x="-768" y="292"/>
      <point x="-706" y="227"/>
      <point x="-622" y="227" type="curve" smooth="yes"/>
      <point x="-536" y="227"/>
      <point x="-473" y="292"/>
      <point x="-473" y="376" type="curve" smooth="yes"/>
      <point x="-473" y="455"/>
      <point x="-536" y="523"/>
      <point x="-622" y="523" type="curve" smooth="yes"/>
      <point x="-706" y="523"/>
      <point x="-768" y="455"/>
    </contour>
    <contour>
      <point x="-768" y="868" type="curve" smooth="yes"/>
      <point x="-768" y="786"/>
      <point x="-706" y="719"/>
      <point x="-622" y="719" type="curve" smooth="yes"/>
      <point x="-536" y="719"/>
      <point x="-473" y="786"/>
      <point x="-473" y="868" type="curve" smooth="yes"/>
      <point x="-473" y="950"/>
      <point x="-536" y="1014"/>
      <point x="-622" y="1014" type="curve" smooth="yes"/>
      <point x="-706" y="1014"/>
      <point x="-768" y="950"/>
    </contour>
  </outline>
</glyph>
<glyph name="colon_greater.liga" format="2">
  <advance width="1200"/>
  <outline>
    <contour>
      <point x="29" y="1177" type="line"/>
      <point x="29" y="1049" type="line"/>
      <point x="851" y="625" type="line"/>
      <point x="29" y="201" type="line"/>
      <point x="29" y="76" type="line"/>
      <point x="961" y="549" type="line"/>
      <point x="961" y="702" type="line"/>
    </contour>
    <component base="colon" xOffset="-1246" yOffset="122"/>
  </outline>
</glyph>
<glyph name="descTail-cy" format="2">
  <advance width="1200"/>
  <anchor x="743" y="0" name="_bottom"/>
  <anchor x="651" y="0" name="_bottomleft"/>
  <anchor x="664" y="0" name="_bottomright"/>
  <outline>
    <contour>
      <point x="826" y="88" type="line"/>
      <point x="628" y="88" type="line"/>
      <point x="608" y="0" type="line"/>
      <point x="677" y="0" type="line"/>
      <point x="611" y="-278" type="line"/>
      <point x="713" y="-278" type="line"/>
    </contour>
  </outline>
</glyph>
<glyph name="equal.dnom" format="2">
  <advance width="1200"/>
  <outline>
    <contour>
      <point x="819" y="506" type="line"/>
      <point x="378" y="506" type="line"/>
      <point x="378" y="392" type="line"/>
      <point x="819" y="392" type="line"/>
    </contour>
    <contour>
      <point x="819" y="272" type="line"/>
      <point x="378" y="272" type="line"/>
      <point x="378" y="157" type="line"/>
      <point x="819" y="157" type="line"/>
    </contour>
  </outline>
</glyph>
<glyph name="equal_equal_greater.liga" format="2">
  <advance width="1200"/>
  <outline>
    <contour>
      <point x="817" y="863" type="line"/>
      <point x="-2128" y="863" type="line"/>
      <point x="-2128" y="748" type="line"/>
      <point x="817" y="748" type="line"/>
    </contour>
    <contour>
      <point x="817" y="496" type="line"/>
      <point x="-2128" y="496" type="line"/>
      <point x="-2128" y="380" type="line"/>
      <point x="817" y="380" type="line"/>
    </contour>
    <component base="_part.arrowhead2"/>
  </outline>
</glyph>
<glyph name="equal_slash_equal.liga" format="2">
  <advance width="1200"/>
  <outline>
    <contour>
      <point x="-921" y="-20" type="line"/>
      <point x="-175" y="1236" type="line"/>
      <point x="-275" y="1286" type="line"/>
      <point x="-1025" y="31" type="line"/>
    </contour>
    <contour>
      <point x="970" y="863" type="line"/>
      <point x="-2170" y="863" type="line"/>
      <point x="-2170" y="748" type="line"/>
      <point x="970" y="748" type="line"/>
    </contour>
    <contour>
      <point x="970" y="496" type="line"/>
      <point x="-2170" y="496" type="line"/>
      <point x="-2170" y="380" type="line"/>
      <point x="970" y="380" type="line"/>
    </contour>
  </outline>
</glyph>
<glyph name="exclamdown.case" format="2">
  <advance width="1200"/>
  <outline>
    <contour>
      <point x="656" y="927" type="line"/>
      <point x="544" y="927" type="line"/>
      <point x="525" y="0" type="line"/>
      <point x="677" y="0" type="line"/>
    </contour>
    <contour>
      <point x="600" y="1393" type="curve" smooth="yes"/>
      <point x="532" y="1393"/>
      <point x="481" y="1341"/>
      <point x="481" y="1273" type="curve" smooth="yes"/>
      <point x="481" y="1206"/>
      <point x="532" y="1153"/>
      <point x="600" y="1153" type="curve" smooth="yes"/>
      <point x="667" y="1153"/>
      <point x="721" y="1206"/>
      <point x="721" y="1273" type="curve" smooth="yes"/>
      <point x="721" y="1341"/>
      <point x="667" y="1393"/>
    </contour>
  </outline>
</glyph>
<glyph name="greater_equal.ss01" format="2">
  <advance width="1200"/>
  <outline>
    <contour>
      <point x="-569" y="179" type="line"/>
      <point x="-522" y="71" type="line"/>
      <point x="571" y="557" type="line"/>
      <point x="525" y="659" type="line"/>
    </contour>
    <contour>
      <point x="-569" y="1077" type="line"/>
      <point x="525" y="597" type="line"/>
      <point x="571" y="557" type="line"/>
      <point x="571" y="699" type="line"/>
      <point x="-522" y="1185" type="line"/>
    </contour>
    <contour>
      <point x="571" y="-73" type="line"/>
      <point x="-540" y="-73" type="line"/>
      <point x="-540" y="-194" type="line"/>
      <point x="571" y="-194" type="line"/>
    </contour>
  </outline>
</glyph>
<glyph name="hyphen_asciitilde.liga" format="2">
  <advance width="1200"/>
  <outline>
    <contour>
      <point x="837" y="757" type="line"/>
      <point x="786" y="664"/>
      <point x="718" y="584"/>
      <point x="633" y="584" type="curve" smooth="yes"/>
      <point x="510" y="584"/>
      <point x="454" y="784"/>
      <point x="252" y="784" type="curve" smooth="yes"/>
      <point x="92" y="784"/>
      <point x="89" y="687"/>
      <point x="-74" y="684" type="curve" smooth="yes"/>
      <point x="-941" y="684" type="line"/>
      <point x="-941" y="568" type="line"/>
      <point x="-49" y="568" type="line" smooth="yes"/>
      <point x="95" y="569"/>
      <point x="121" y="666"/>
      <point x="247" y="666" type="curve" smooth="yes"/>
      <point x="375" y="666"/>
      <point x="442" y="466"/>
      <point x="628" y="466" type="curve" smooth="yes"/>
      <point x="803" y="466"/>
      <point x="889" y="608"/>
      <point x="940" y="701" type="curve"/>
    </contour>
  </outline>
</glyph>
<glyph name="ksi-cyHELPER" format="2">
  <advance width="1200"/>
  <anchor x="567" y="1050" name="top"/>
  <outline>
    <contour>
      <point x="434" y="-419" type="curve"/>
      <point x="494" y="-330" type="line"/>
      <point x="380" y="-273"/>
      <point x="315" y="-220"/>
      <point x="315" y="-159" type="curve" smooth="yes"/>
      <point x="315" y="-94"/>
      <point x="372" y="-69"/>
      <point x="592" y="-54" type="curve" smooth="yes"/>
      <point x="843" y="-39"/>
      <point x="1024" y="60"/>
      <point x="1024" y="264" type="curve" smooth="yes"/>
      <point x="1024" y="476"/>
      <point x="877" y="561"/>
      <point x="659" y="561" type="curve" smooth="yes"/>
      <point x="489" y="561" type="line"/>
      <point x="967" y="948" type="line"/>
      <point x="967" y="1050" type="line"/>
      <point x="164" y="1050" type="line"/>
      <point x="164" y="933" type="line"/>
      <point x="784" y="933" type="line"/>
      <point x="348" y="570" type="line"/>
      <point x="348" y="459" type="line"/>
      <point x="699" y="459" type="line" smooth="yes"/>
      <point x="812" y="459"/>
      <point x="891" y="408"/>
      <point x="891" y="265" type="curve" smooth="yes"/>
      <point x="891" y="112"/>
      <point x="770" y="74"/>
      <point x="544" y="61" type="curve" smooth="yes"/>
      <point x="297" y="49"/>
      <point x="185" y="-17"/>
      <point x="185" y="-151" type="curve" smooth="yes"/>
      <point x="185" y="-255"/>
      <point x="262" y="-343"/>
    </contour>
  </outline>
</glyph>
<glyph name="less_exclam_hyphen_hyphen.liga" format="2">
  <advance width="1200"/>
  <outline>
    <contour>
      <point x="-3015" y="1216" type="line"/>
      <point x="-3541" y="626" type="line"/>
      <point x="-3015" y="36" type="line"/>
      <point x="-2915" y="120" type="line"/>
      <point x="-3244" y="482" type="line" smooth="yes"/>
      <point x="-3271" y="511"/>
      <point x="-3301" y="544"/>
      <point x="-3340" y="568" type="curve"/>
      <point x="-2681" y="568" type="line"/>
      <point x="-2681" y="684" type="line"/>
      <point x="-3338" y="684" type="line"/>
      <point x="-3290" y="715"/>
      <point x="-3290" y="718"/>
      <point x="-3244" y="770" type="curve" smooth="yes"/>
      <point x="-2915" y="1132" type="line"/>
    </contour>
    <contour>
      <point x="-2106" y="568" type="line"/>
      <point x="941" y="568" type="line"/>
      <point x="941" y="684" type="line"/>
      <point x="-2106" y="684" type="line"/>
    </contour>
    <component base="exclam" xOffset="-3000"/>
  </outline>
</glyph>
<glyph name="less_greater.liga" format="2">
  <advance width="1200"/>
  <outline>
    <contour>
      <point x="0" y="1270" type="line"/>
      <point x="-913" y="705" type="line"/>
      <point x="-913" y="549" type="line"/>
      <point x="0" y="-24" type="line"/>
      <point x="916" y="549" type="line"/>
      <point x="916" y="705" type="line"/>
    </contour>
    <contour>
      <point x="0" y="115" type="line"/>
      <point x="-807" y="625" type="line"/>
      <point x="0" y="1129" type="line"/>
      <point x="810" y="625" type="line"/>
    </contour>
  </outline>
</glyph>
<glyph name="less_hyphen_greater.liga" format="2">
  <advance width="1200"/>
  <outline>
    <contour>
      <point x="415" y="1216" type="line"/>
      <point x="315" y="1132" type="line"/>
      <point x="644" y="770" type="line" smooth="yes"/>
      <point x="690" y="718"/>
      <point x="690" y="715"/>
      <point x="738" y="684" type="curve"/>
      <point x="-1938" y="684" type="line"/>
      <point x="-1890" y="715"/>
      <point x="-1890" y="718"/>
      <point x="-1844" y="770" type="curve" smooth="yes"/>
      <point x="-1515" y="1132" type="line"/>
      <point x="-1615" y="1216" type="line"/>
      <point x="-2141" y="626" type="line"/>
      <point x="-1615" y="36" type="line"/>
      <point x="-1515" y="120" type="line"/>
      <point x="-1844" y="482" type="line" smooth="yes"/>
      <point x="-1871" y="511"/>
      <point x="-1901" y="544"/>
      <point x="-1940" y="568" type="curve"/>
      <point x="740" y="568" type="line"/>
      <point x="701" y="544"/>
      <point x="671" y="511"/>
      <point x="644" y="482" type="curve" smooth="yes"/>
      <point x="315" y="120" type="line"/>
      <point x="415" y="36" type="line"/>
      <point x="941" y="626" type="line"/>
    </contour>
  </outline>
</glyph>
<glyph name="less_slash.liga" format="2">
  <advance width="1200"/>
  <outline>
    <contour>
      <point x="-249" y="1177" type="line"/>
      <point x="-1013" y="705" type="line"/>
      <point x="-1013" y="549" type="line"/>
      <point x="3" y="-84" type="line"/>
      <point x="78" y="9" type="line"/>
      <point x="-907" y="625" type="line"/>
      <point x="-184" y="1075" type="line"/>
    </contour>
    <contour>
      <point x="-17" y="-282" type="line"/>
      <point x="881" y="1563" type="line"/>
      <point x="780" y="1614" type="line"/>
      <point x="-120" y="-237" type="line"/>
    </contour>
  </outline>
</glyph>
<glyph name="nine.dnom" format="2">
  <advance width="1200"/>
  <outline>
    <contour>
      <point x="375" y="95" type="curve"/>
      <point x="407" y="-6" type="line"/>
      <point x="749" y="28"/>
      <point x="907" y="132"/>
      <point x="907" y="378" type="curve" smooth="yes"/>
      <point x="907" y="552"/>
      <point x="789" y="654"/>
      <point x="595" y="654" type="curve" smooth="yes"/>
      <point x="441" y="654"/>
      <point x="299" y="575"/>
      <point x="299" y="432" type="curve" smooth="yes"/>
      <point x="299" y="294"/>
      <point x="423" y="230"/>
      <point x="559" y="230" type="curve" smooth="yes"/>
      <point x="657" y="230"/>
      <point x="719" y="263"/>
      <point x="786" y="299" type="curve"/>
      <point x="743" y="172"/>
      <point x="622" y="126"/>
    </contour>
    <contour>
      <point x="581" y="329" type="curve" smooth="yes"/>
      <point x="485" y="329"/>
      <point x="422" y="360"/>
      <point x="422" y="434" type="curve" smooth="yes"/>
      <point x="422" y="506"/>
      <point x="491" y="547"/>
      <point x="596" y="547" type="curve" smooth="yes"/>
      <point x="716" y="547"/>
      <point x="783" y="489"/>
      <point x="785" y="380" type="curve"/>
      <point x="728" y="350"/>
      <point x="656" y="329"/>
    </contour>
  </outline>
</glyph>
<glyph name="numbersign_colon.liga" format="2">
  <advance width="1200"/>
  <outline>
    <contour>
      <point x="609" y="1084" type="line"/>
      <point x="566" y="783" type="line"/>
      <point x="789" y="783" type="line"/>
      <point x="832" y="1084" type="line"/>
    </contour>
    <contour>
      <point x="529" y="523" type="line"/>
      <point x="486" y="222" type="line"/>
      <point x="709" y="222" type="line"/>
      <point x="752" y="523" type="line"/>
    </contour>
    <component base="numbersign" xOffset="-1000"/>
  </outline>
</glyph>
<glyph name="numbersign_exclam.liga" format="2">
  <advance width="1200"/>
  <outline>
    <contour>
      <point x="581" y="463" type="line"/>
      <point x="703" y="1374" type="line"/>
      <point x="555" y="1374" type="line"/>
      <point x="434" y="463" type="line"/>
    </contour>
    <contour>
      <point x="538" y="0" type="line"/>
      <point x="576" y="248" type="line"/>
      <point x="388" y="248" type="line"/>
      <point x="350" y="0" type="line"/>
    </contour>
    <component base="numbersign" xOffset="-1000"/>
  </outline>
</glyph>
<glyph name="numbersign_numbersign_numbersign_numbersign.liga.rem" format="2">
  <advance width="1200"/>
  <outline>
    <contour>
      <point x="794" y="918" type="line"/>
      <point x="794" y="1026" type="line"/>
      <point x="528" y="1026" type="line"/>
      <point x="577" y="1374" type="line"/>
      <point x="461" y="1374" type="line"/>
      <point x="414" y="1026" type="line"/>
      <point x="-290" y="1026" type="line"/>
      <point x="-241" y="1374" type="line"/>
      <point x="-357" y="1374" type="line"/>
      <point x="-404" y="1026" type="line"/>
      <point x="-1104" y="1026" type="line"/>
      <point x="-1055" y="1374" type="line"/>
      <point x="-1165" y="1374" type="line"/>
      <point x="-1212" y="1026" type="line"/>
      <point x="-1914" y="1026" type="line"/>
      <point x="-1865" y="1374" type="line"/>
      <point x="-1981" y="1374" type="line"/>
      <point x="-2028" y="1026" type="line"/>
      <point x="-2730" y="1026" type="line"/>
      <point x="-2681" y="1374" type="line"/>
      <point x="-2797" y="1374" type="line"/>
      <point x="-2844" y="1026" type="line"/>
      <point x="-3123" y="1026" type="line"/>
      <point x="-3123" y="918" type="line"/>
      <point x="-2858" y="918" type="line"/>
      <point x="-2920" y="461" type="line"/>
      <point x="-3197" y="461" type="line"/>
      <point x="-3197" y="354" type="line"/>
      <point x="-2934" y="354" type="line"/>
      <point x="-2981" y="0" type="line"/>
      <point x="-2864" y="0" type="line"/>
      <point x="-2818" y="354" type="line"/>
      <point x="-2118" y="354" type="line"/>
      <point x="-2165" y="0" type="line"/>
      <point x="-2048" y="0" type="line"/>
      <point x="-2002" y="354" type="line"/>
      <point x="-1302" y="354" type="line"/>
      <point x="-1349" y="0" type="line"/>
      <point x="-1238" y="0" type="line"/>
      <point x="-1192" y="354" type="line"/>
      <point x="-494" y="354" type="line"/>
      <point x="-541" y="0" type="line"/>
      <point x="-424" y="0" type="line"/>
      <point x="-378" y="354" type="line"/>
      <point x="324" y="354" type="line"/>
      <point x="277" y="0" type="line"/>
      <point x="394" y="0" type="line"/>
      <point x="438" y="354" type="line"/>
      <point x="720" y="354" type="line"/>
      <point x="720" y="461" type="line"/>
      <point x="454" y="461" type="line"/>
      <point x="515" y="918" type="line"/>
    </contour>
    <contour>
      <point x="-2104" y="461" type="line"/>
      <point x="-2804" y="461" type="line"/>
      <point x="-2743" y="918" type="line"/>
      <point x="-2042" y="918" type="line"/>
    </contour>
    <contour>
      <point x="-1288" y="461" type="line"/>
      <point x="-1988" y="461" type="line"/>
      <point x="-1927" y="918" type="line"/>
      <point x="-1226" y="918" type="line"/>
    </contour>
    <contour>
      <point x="-480" y="461" type="line"/>
      <point x="-1178" y="461" type="line"/>
      <point x="-1117" y="918" type="line"/>
      <point x="-418" y="918" type="line"/>
    </contour>
    <contour>
      <point x="338" y="461" type="line"/>
      <point x="-364" y="461" type="line"/>
      <point x="-303" y="918" type="line"/>
      <point x="400" y="918" type="line"/>
    </contour>
  </outline>
</glyph>
<glyph name="numbersign_underscore.liga" format="2">
  <advance width="1200"/>
  <outline>
    <contour>
      <point x="-335" y="-243" type="line"/>
      <point x="-260" y="354" type="line"/>
      <point x="-71" y="354" type="line"/>
      <point x="-71" y="461" type="line"/>
      <point x="-244" y="461" type="line"/>
      <point x="-182" y="918" type="line"/>
      <point x="3" y="918" type="line"/>
      <point x="3" y="1026" type="line"/>
      <point x="-169" y="1026" type="line"/>
      <point x="-119" y="1374" type="line"/>
      <point x="-228" y="1374" type="line"/>
      <point x="-274" y="1026" type="line"/>
      <point x="-598" y="1026" type="line"/>
      <point x="-548" y="1374" type="line"/>
      <point x="-656" y="1374" type="line"/>
      <point x="-703" y="1026" type="line"/>
      <point x="-890" y="1026" type="line"/>
      <point x="-890" y="918" type="line"/>
      <point x="-717" y="918" type="line"/>
      <point x="-780" y="461" type="line"/>
      <point x="-964" y="461" type="line"/>
      <point x="-964" y="354" type="line"/>
      <point x="-794" y="354" type="line"/>
      <point x="-842" y="0" type="line"/>
      <point x="-733" y="0" type="line"/>
      <point x="-687" y="354" type="line"/>
      <point x="-366" y="354" type="line"/>
      <point x="-457" y="-360" type="line"/>
      <point x="1100" y="-360" type="line"/>
      <point x="1100" y="-243" type="line"/>
    </contour>
    <contour>
      <point x="-672" y="461" type="line"/>
      <point x="-611" y="918" type="line"/>
      <point x="-288" y="918" type="line"/>
      <point x="-351" y="461" type="line"/>
    </contour>
  </outline>
</glyph>
<glyph name="period_hyphen.liga" format="2">
  <advance width="1200"/>
  <outline>
    <contour>
      <point x="-64" y="568" type="line"/>
      <point x="941" y="568" type="line"/>
      <point x="941" y="684" type="line"/>
      <point x="-64" y="684" type="line"/>
    </contour>
    <component base="bullet" xOffset="-1185" yOffset="-55"/>
  </outline>
</glyph>
<glyph name="plus.rem" format="2">
  <advance width="1200"/>
  <outline>
    <contour>
      <point x="660" y="971" type="line"/>
      <point x="535" y="971" type="line"/>
      <point x="535" y="676" type="line"/>
      <point x="250" y="676" type="line"/>
      <point x="250" y="565" type="line"/>
      <point x="535" y="565" type="line"/>
      <point x="535" y="274" type="line"/>
      <point x="660" y="274" type="line"/>
      <point x="660" y="565" type="line"/>
      <point x="950" y="565" type="line"/>
      <point x="950" y="676" type="line"/>
      <point x="660" y="676" type="line"/>
    </contour>
  </outline>
</glyph>
<glyph name="seven.tosf" format="2">
  <advance width="1200"/>
  <outline>
    <contour>
      <point x="986" y="1121" type="line"/>
      <point x="199" y="1121" type="line"/>
      <point x="199" y="1010" type="line"/>
      <point x="862" y="1010" type="line"/>
      <point x="376" y="-187" type="line"/>
      <point x="488" y="-226" type="line"/>
      <point x="986" y="1016" type="line"/>
    </contour>
  </outline>
</glyph>
<glyph name="slash_greater.liga" format="2">
  <advance width="1200"/>
  <outline>
    <contour>
      <point x="-50" y="1364" type="line"/>
      <point x="-114" y="1266" type="line"/>
      <point x="910" y="625" type="line"/>
      <point x="187" y="173" type="line"/>
      <point x="262" y="76" type="line"/>
      <point x="1016" y="549" type="line"/>
      <point x="1016" y="705" type="line"/>
    </contour>
    <component base="slash" xOffset="-1000"/>
  </outline>
</glyph>
<glyph name="two.dnom" format="2">
  <advance width="1200"/>
  <outline>
    <contour>
      <point x="866" y="440" type="curve" smooth="yes"/>
      <point x="866" y="570"/>
      <point x="771" y="654"/>
      <point x="605" y="654" type="curve" smooth="yes"/>
      <point x="497" y="654"/>
      <point x="393" y="604"/>
      <point x="313" y="510" type="curve"/>
      <point x="403" y="441" type="line"/>
      <point x="466" y="518"/>
      <point x="539" y="546"/>
      <point x="609" y="546" type="curve" smooth="yes"/>
      <point x="691" y="546"/>
      <point x="738" y="507"/>
      <point x="738" y="441" type="curve" smooth="yes"/>
      <point x="738" y="346"/>
      <point x="647" y="297"/>
      <point x="320" y="93" type="curve"/>
      <point x="320" y="0" type="line"/>
      <point x="870" y="0" type="line"/>
      <point x="884" y="108" type="line"/>
      <point x="513" y="108" type="line"/>
      <point x="773" y="242"/>
      <point x="866" y="309"/>
    </contour>
  </outline>
</glyph>
<glyph name="two.tosf" format="2">
  <advance width="1200"/>
  <outline>
    <contour>
      <point x="572" y="1141" type="curve" smooth="yes"/>
      <point x="402" y="1141"/>
      <point x="281" y="1070"/>
      <point x="171" y="940" type="curve"/>
      <point x="259" y="866" type="line"/>
      <point x="362" y="989"/>
      <point x="459" y="1031"/>
      <point x="581" y="1031" type="curve" smooth="yes"/>
      <point x="735" y="1031"/>
      <point x="847" y="939"/>
      <point x="847" y="795" type="curve" smooth="yes"/>
      <point x="847" y="622"/>
      <point x="792" y="527"/>
      <point x="191" y="111" type="curve"/>
      <point x="191" y="0" type="line"/>
      <point x="983" y="0" type="line"/>
      <point x="999" y="116" type="line"/>
      <point x="361" y="116" type="line"/>
      <point x="946" y="475"/>
      <point x="983" y="615"/>
      <point x="983" y="793" type="curve" smooth="yes"/>
      <point x="983" y="995"/>
      <point x="824" y="1141"/>
    </contour>
  </outline>
</glyph>
